<?xml version="1.0" ?><!DOCTYPE svg  PUBLIC '-//W3C//DTD SVG 1.1//EN'  'http://www.w3.org/Graphics/SVG/1.1/DTD/svg11.dtd'><svg height="512px" style="enable-background:new 0 0 512 512;" version="1.1" viewBox="0 0 512 512" width="512px" xml:space="preserve" xmlns="http://www.w3.org/2000/svg" xmlns:xlink="http://www.w3.org/1999/xlink"><g id="_x37_2"><g><g><g><g><g><g><path d="M354.179,286.516c-0.136,0.164,0.605,0.362,0.724,0.438         C354.858,286.602,353.992,286.448,354.179,286.516z" style="fill:#202020;"/><polygon points="354.377,282.391 354.602,282.618 354.29,281.698        " style="fill:#202020;"/><path d="M356.669,279.331c-1.238-0.559-0.73,1.21-1.49,1.473l-0.307-0.083l0.669,0.861         C355.865,280.828,356.006,279.543,356.669,279.331z" style="fill:#202020;"/><path d="M360.035,279.824c-0.436-0.278-0.035-0.588-0.407,0.188c0.068,0.009,0.1,0.022,0.145,0.033         C359.817,279.987,359.89,279.918,360.035,279.824z" style="fill:#202020;"/><path d="M359.772,280.046C359.554,280.328,360.239,280.174,359.772,280.046L359.772,280.046z" style="fill:#202020;"/><path d="M360.743,278.718l-0.032,0.638c0.272,0.15,0.604-0.054,0.642,0.204         C361.517,279.085,361.265,278.911,360.743,278.718z" style="fill:#202020;"/><path d="M360.456,277.714l-0.062,0.302C360.509,278.083,360.584,278.077,360.456,277.714z" style="fill:#202020;"/><path d="M360.277,278.659l0.117-0.644c-0.188-0.116-0.473-0.424-0.082,0.267         C360.09,277.966,360.255,278.311,360.277,278.659z" style="fill:#202020;"/><path d="M359.928,278.713c-0.386-0.025-0.772,0.104-0.725-0.567         C358.642,278.947,359.401,279.47,359.928,278.713z" style="fill:#202020;"/><path d="M355.781,278.302l-0.563,0.072l0.104,0.559C355.27,278.651,356.106,278.547,355.781,278.302z" style="fill:#202020;"/><path d="M363.104,277.812c-0.114-0.254-0.453-0.59-0.66-0.878l-0.066,0.412         C362.6,277.427,362.896,277.457,363.104,277.812z" style="fill:#202020;"/><path d="M362.443,276.934c0.001,0,0.107-0.604,0.124-0.611         C362.215,276.447,362.27,276.684,362.443,276.934z" style="fill:#202020;"/><path d="M359.598,276.55c0,0-0.012,0.338-0.023,0.676c-0.002,0.336-0.004,0.671-0.004,0.671         s0.032-0.367,0.064-0.733c0.046-0.368,0.092-0.735,0.092-0.735L359.598,276.55z" style="fill:#202020;"/><polygon points="364.849,277.019 364.809,277.736 364.957,276.613        " style="fill:#202020;"/><path d="M366.206,276.31c-0.029,0.587,0.672,0.689,0.55,1.096c0.349-0.25,0.507-0.809,0.654-1.312         C367.175,276.438,366.813,276.524,366.206,276.31z" style="fill:#202020;"/><path d="M367.695,275.332c-0.113,0.184-0.195,0.463-0.285,0.762         C367.535,275.91,367.638,275.678,367.695,275.332z" style="fill:#202020;"/><path d="M363.454,276.044c0.11,0.133,0.371,0.494,0.744,0.527l-0.531-0.612         C363.602,275.985,363.528,276.015,363.454,276.044z" style="fill:#202020;"/><path d="M363.648,275.939l0.019,0.02c0.239-0.085,0.405-0.144,0.477-0.168         C364.081,275.81,363.932,275.854,363.648,275.939z" style="fill:#202020;"/><path d="M363.4,276.065c0.021-0.008,0.034-0.014,0.054-0.021         C363.402,275.984,363.379,275.967,363.4,276.065z" style="fill:#202020;"/><path d="M361.138,276.263c-0.016-0.523,0.307-1.268-0.593-1.485         C360.648,275.345,361.146,275.467,361.138,276.263z" style="fill:#202020;"/><path d="M362.732,275.306l-0.606,0.101c0.104,0.177,0.326,0.4,0.294,0.659         c0,0,0.062-0.185,0.143-0.376C362.647,275.498,362.732,275.306,362.732,275.306z" style="fill:#202020;"/><polygon points="362.902,274.953 362.732,275.306 362.967,275.268        " style="fill:#202020;"/><path d="M366.369,275.092c0.134-0.422,0.414-0.569,0.723-0.755c-0.411,0.003-0.808,0.078-1.15,0.224         C365.987,274.807,366.006,275.273,366.369,275.092z" style="fill:#202020;"/><path d="M364.999,275.438c0.012-0.021,0.028-0.047,0.04-0.065         C364.978,275.326,364.94,275.319,364.999,275.438z" style="fill:#202020;"/><path d="M370.37,273.034c-0.036-0.038-0.067-0.072-0.104-0.111c0.012,0.044,0.021,0.077,0.036,0.13         L370.37,273.034z" style="fill:#202020;"/><path d="M365.826,274.451c-0.321-0.028-0.404,0.214-0.458,0.498c0.163-0.155,0.352-0.29,0.573-0.389         C365.921,274.449,365.896,274.38,365.826,274.451z" style="fill:#202020;"/><path d="M368.464,274.629c-0.199-0.096-0.407-0.159-0.621-0.211         C368.071,274.591,368.49,274.836,368.464,274.629z" style="fill:#202020;"/><path d="M365.211,275.532c-0.009,0.017-0.015,0.035-0.025,0.048         C365.336,275.697,365.293,275.627,365.211,275.532z" style="fill:#202020;"/><path d="M365.211,275.532c0.087-0.16,0.118-0.381,0.157-0.583c-0.136,0.123-0.249,0.263-0.329,0.423         C365.093,275.408,365.157,275.472,365.211,275.532z" style="fill:#202020;"/><path d="M369.569,267.988c0.21,0.691-0.267,1.591-1.17,1.115c-0.415,0.743,0.858,2.79,1.866,3.819         c-0.096-0.3-0.203-0.571,0.267-1.21c-0.36-0.283-1.721-0.316-1.432-1.13c0.694-0.671,0.773-0.028,1.313,0.171         c-0.669-0.705,0.587-1.629-0.067-2.791l-0.565,0.717C369.693,268.493,369.841,268.084,369.569,267.988z" style="fill:#202020;"/><path d="M369.059,273.319l-0.222,0.184c0.336,0.002,0.65,0.188,1.238,0.562         c0.294-0.493,0.285-0.776,0.227-1.012l-1.291,0.401L369.059,273.319z" style="fill:#202020;"/><path d="M367.701,273.963c-0.098-0.807,0.391-1.362-0.301-1.999c-0.729,0.353-0.279,0.818-0.596,1.314         c1.126-0.667-0.179,0.544,0.854,0.604c-0.185,0.22-0.381,0.343-0.566,0.454c0.25,0.001,0.502,0.026,0.751,0.081         c-0.018-0.014-0.03-0.022-0.046-0.033l-0.004,0.004l-0.004-0.012c-0.088-0.07-0.127-0.118-0.048-0.089         c0-0.012,0.013-0.021,0.019-0.025c-0.033-0.104-0.047-0.201-0.057-0.296c0.407,0.01,0.131,0.167,0.057,0.296         c0.011,0.037,0.015,0.075,0.029,0.114l0.008,0.008l1.04-0.882C368.542,273.504,368.23,273.651,367.701,273.963z" style="fill:#202020;"/><path d="M360.214,273.002c0.069,0.039,0.096,0.089,0.126,0.137         C360.363,273.014,360.359,272.939,360.214,273.002z" style="fill:#202020;"/><path d="M360.896,273.166c-0.029,0.141,0.055,0.449-0.23,0.516c-0.333-0.076-0.188-0.325-0.326-0.543         c-0.06,0.277-0.234,0.792,0.418,0.85l0.019-0.135c0.536,0.001,1.537,0.612,1.504,0.747         C361.846,274.027,361.513,273.627,360.896,273.166z" style="fill:#202020;"/><path d="M364.248,273.308l0.844-0.775l-0.773-0.411l0.186,0.365         C363.874,272.58,364.194,272.99,364.248,273.308z" style="fill:#202020;"/><polygon points="370.627,273.353 370.795,274.176 370.952,272.859        " style="fill:#202020;"/><polygon points="371.903,272.751 372.113,273.442 372.304,272.903        " style="fill:#202020;"/><path d="M185.765,368.608l4.412-0.847C188.084,368.13,186.744,368.393,185.765,368.608z" style="fill:#202020;"/><path d="M163.722,354.45l-0.752-0.441C164.006,355.12,164.482,355.538,163.722,354.45z" style="fill:#202020;"/><path d="M233.692,74.533c-4.717,4.548-10.201,9.432-9.085,9.365l1.883-1.008         C229.327,79.308,231.648,76.693,233.692,74.533z" style="fill:#202020;"/><path d="M108.803,196.124c0.145-0.61,0.294-1.245,0.443-1.873c-0.1-1.611-0.194-3.127-0.278-4.482         C108.919,191.679,108.862,193.849,108.803,196.124z" style="fill:#202020;"/><path d="M111.552,201.123c0,0-0.357,2.128-0.714,4.256c-0.181,1.055-0.343,2.137-0.525,2.95         c-0.149,0.767-0.249,1.278-0.249,1.278c0.101-0.458,0.213-0.965,0.336-1.525c0.149-0.638,0.243-1.26,0.365-1.967         C111.002,204.708,111.263,203.057,111.552,201.123z" style="fill:#202020;"/><path d="M248.028,234.469l-0.525-5.276C247.072,237.373,247.669,233.798,248.028,234.469z" style="fill:#202020;"/><path d="M344.817,187.133c-4.372,3.579-7.771,6.511-10.708,9.145         C339.431,192.027,343.935,188.83,344.817,187.133z" style="fill:#202020;"/><path d="M172.412,373.95c2.753,1.16,4.038,1.403,4.013,1.222         C173.516,374.184,171.936,373.48,172.412,373.95z" style="fill:#202020;"/><path d="M323.493,210.535c0.587-0.899,1.146-1.778,1.765-2.663c1.089-1.906,2.254-3.763,3.621-5.675         c0.688-0.955,1.423-1.923,2.262-2.916c0.214-0.248,0.431-0.498,0.648-0.75c0.257-0.279,0.515-0.56,0.775-0.844         c0.086-0.096,0.183-0.178,0.276-0.265l0.232-0.21l0.341-0.309c0.229-0.206,0.461-0.414,0.695-0.625         c-0.245,0.197-0.493,0.395-0.742,0.595l-0.375,0.303c-0.136,0.116-0.405,0.328-0.58,0.517         c-0.283,0.284-0.567,0.571-0.854,0.859c-0.254,0.271-0.509,0.544-0.766,0.818c-0.999,1.103-1.934,2.253-2.81,3.452         C326.232,205.218,324.695,207.797,323.493,210.535z" style="fill:#202020;"/><path d="M366.339,292.543c-0.055-0.02-0.111-0.019-0.164-0.045         C366.196,292.604,366.258,292.589,366.339,292.543z" style="fill:#202020;"/><path d="M353.118,285.088c0.074-0.019,0.17,0.024,0.283,0.055         C353.368,285.072,353.281,285.045,353.118,285.088z" style="fill:#202020;"/><path d="M408.831,214.447C409.207,218.764,408.978,215.125,408.831,214.447L408.831,214.447z" style="fill:#202020;"/><path d="M405.487,235.432c-0.01-0.899-0.063-1.585-0.235-1.706         C405.411,234.087,405.48,234.682,405.487,235.432z" style="fill:#202020;"/><path d="M307.029,210.311c0.048-0.114,0.087-0.205,0.143-0.336         C306.55,211.078,306.662,210.89,307.029,210.311z" style="fill:#202020;"/><path d="M408.881,220.972c0.025-1.632,0-3.504-0.097-5.54         C408.8,216.329,408.829,218.012,408.881,220.972z" style="fill:#202020;"/><path d="M409.213,220.077c0.037,1.497,0.057,2.68,0.06,3.814         C409.404,224.45,409.521,223.932,409.213,220.077z" style="fill:#202020;"/><path d="M408.174,208.399c0.326,2.508,0.498,4.811,0.61,7.033c-0.012-0.853,0.003-1.211,0.047-0.985         C408.711,213.177,408.559,211.405,408.174,208.399z" style="fill:#202020;"/><path d="M366.021,330.947c0.181-0.213,0.389-0.457,0.585-0.689         C368.813,326.614,367.77,328.16,366.021,330.947z" style="fill:#202020;"/><path d="M187.255,167.954c-0.059-0.155-0.09-0.238-0.144-0.378c0.036,0.162,0.082,0.363,0.114,0.509         L187.255,167.954z" style="fill:#202020;"/><path d="M193.625,181.123c-1.761-2.737-2.987-4.953-3.998-7.05c-0.505-1.049-0.956-2.068-1.393-3.108         l-0.326-0.785c-0.096-0.242-0.246-0.579-0.29-0.738c-0.133-0.386-0.28-0.872-0.393-1.357c0,0-0.058,0.29-0.144,0.724         c-0.035,0.217-0.076,0.47-0.119,0.741c-0.019,0.129-0.044,0.257-0.059,0.405c-0.001,0.168-0.003,0.339-0.005,0.51         c-0.012,1.368-0.025,2.735-0.025,2.735L193.625,181.123z" style="fill:#202020;"/><path d="M243.324,334.074c0,0-0.074,0.666-0.185,1.666c-0.027,0.252-0.056,0.525-0.087,0.814         c-0.015,0.147-0.031,0.299-0.046,0.454c-0.013,0.095-0.025,0.109-0.041,0.168c-0.053,0.155-0.196,0.67-0.362,1.114         c-0.169,0.467-0.371,0.952-0.575,1.389c-0.105,0.215-0.208,0.422-0.304,0.619c-0.05,0.095-0.1,0.187-0.147,0.275         c-0.043,0.077-0.053,0.073-0.077,0.109c-0.17,0.211-0.292,0.319-0.292,0.319c0.023-0.11,0.04-0.216,0.052-0.315         c0.022-0.129-0.019-0.104,0.097-0.456c0.161-0.546,0.302-1.108,0.408-1.639c0.106-0.524,0.18-1.044,0.19-1.368         c0.006-0.195-0.023-0.098-0.034-0.277c-0.006-0.34-0.011-0.673-0.017-0.998c-0.018-2.539-0.033-4.605-0.042-5.955         c-0.034-2.691-0.198-2.527-0.938,2.458c0.3,0.203,0.498,1.003,0.624,2.255c0.063,0.63,0.107,1.359,0.14,2.227         c0.023,0.179,0.064,0.091,0.04,0.395c-0.018,0.243-0.069,0.564-0.142,0.907c-0.074,0.344-0.17,0.714-0.285,1.089         c-0.062,0.185-0.124,0.372-0.187,0.563c-0.059,0.158-0.119,0.319-0.179,0.481c-0.055,0.19-0.138,0.397-0.275,0.58         c-0.069,0.089-0.157,0.176-0.269,0.21c-0.113,0.028-0.231-0.007-0.351,0.015l-0.721,0.081         c-0.434,0.057-0.851,0.123-1.253,0.198c-0.806,0.149-1.568,0.328-2.31,0.525c-2.947,0.796-5.622,1.856-8.121,3.108         c-0.607,0.305-1.267,0.658-1.792,0.964c-0.511,0.288-1.013,0.57-1.501,0.847c-0.967,0.56-1.886,1.092-2.74,1.586         c-3.396,2.017-5.671,3.6-5.704,4.316c0,0-1.601,0.708-3.202,1.416l-0.3,0.133l-0.484,0.231         c-0.315,0.163-0.656,0.285-0.935,0.476c-0.491,0.41-1.101,0.933-1.256,1.039c-0.497,0.378-0.828,0.63-0.828,0.63         c0.362-0.312,0.638-0.565,0.871-0.789c0.381-0.37,0.703-0.683,1.024-0.995c0.367-0.322,0.83-0.508,1.321-0.806         c0.165-0.092,0.342-0.19,0.538-0.299c0.178-0.095,0.374-0.198,0.592-0.314c-0.196,0.084-0.387,0.167-0.575,0.248         c-0.206,0.092-0.408,0.183-0.606,0.271c-0.588,0.318-1.246,0.502-1.676,0.972c-0.236,0.203-0.468,0.402-0.695,0.598         c-0.127,0.104-0.251,0.205-0.374,0.305c-0.245,0.202-0.48,0.396-0.706,0.582c-0.907,0.754-1.666,1.42-2.32,2.037         c-1.312,1.231-2.206,2.271-3.188,3.398c-0.985,1.125-2.061,2.344-3.778,3.868c-0.429,0.379-0.898,0.777-1.416,1.192         c-0.128,0.102-0.259,0.205-0.393,0.312l-0.214,0.179c-0.148,0.117-0.302,0.237-0.462,0.363         c-0.198,0.038-0.405,0.076-0.62,0.117c-0.372,0.058-0.758,0.117-1.16,0.18c-0.932,0.126-1.937,0.262-3.023,0.408         c-6.075,0.689-10.347,0.946-6.266,0.059c0,0-0.837,0.159-2.092,0.399c-0.282,0.07-0.555,0.175-0.889,0.102l-0.259-0.033         c-0.17-0.035-0.343-0.07-0.517-0.105c-0.351-0.076-0.71-0.163-1.073-0.258c-1.451-0.381-2.925-0.898-4.013-1.332         c-1.092-0.429-1.805-0.759-1.805-0.759c-1.614-0.856-2.124-1.331-1.885-1.308c0.243,0.016,1.249,0.502,2.856,1.308         c0,0-1.084-0.487-2.629-1.348c-0.77-0.431-1.652-0.956-2.539-1.556c-0.442-0.301-0.89-0.616-1.315-0.946l-0.554-0.444         c-0.086-0.074-0.221-0.158-0.291-0.273c-2.971-4.064-5.941-8.129-5.941-8.129l0.149,0.083         c-2.041-2.183-6.437-7.295-8.552-9.812c-2.785-4.497,1.754,2.001,1.218,0.723l-7.181-9.002         c-2.207-4.182,3.847,3.205,8.397,9.718c-4.246-10.169-6.061-7.396-18.382-27.082l6.576,8.646         c-2.935-6.507-8.282-13.102-14.718-23.594c1.325,2.635,12.517,21.268,4.751,11.478c-1.896-2.969-4.523-6.79-8.848-11.976         c0.679-0.563-3.324-5.781-8.154-12.442l1.273-0.221c-0.085-0.11-0.169-0.218-0.251-0.324l-0.114-0.146l-0.031-0.029         l-0.124-0.114c-0.087-0.078-0.168-0.151-0.244-0.219c-0.184-0.153-0.342-0.284-0.48-0.399         c-0.317-0.253-0.629-0.479-0.952-0.71c-0.319-0.234-0.69-0.456-0.958-0.823c-0.281-0.354-0.611-0.813-0.74-1.483         c0.099-0.509,0.559-0.83,1.016-0.829c0.455-0.021,0.869,0.129,1.218,0.287c0.684,0.384,1.221,0.633,1.608,0.901         c0.772,0.528,1.016,1.014,1.132,1.432c0.888,0.218,1.626,0.399,2.234,0.549c0.664,0.148,1.186,0.265,1.587,0.354         c0.806,0.164,1.136,0.192,1.156,0.13c0.04-0.124-1.159-0.609-2.267-1.086c-2.216-0.953-4.065-1.87,5.098,0.205         c3.185,0.875,6.144,1.638,9.033,2.335c1.447,0.338,2.875,0.671,4.302,1.004c0.988,0.243,0.677,0.085,1.319,0.379         c0.987,0.426,1.916,0.697,2.819,0.91c0.472,0.108,0.851,0.183,1.389,0.275c0.592,0.103,1.189,0.18,1.787,0.24         c1.195,0.119,2.397,0.163,3.581,0.129c2.366-0.065,4.676-0.423,6.666-1.188c0.995-0.384,1.911-0.863,2.732-1.479         c0.806-0.622,1.58-1.383,2.046-2.469c0.228-0.537,0.339-1.132,0.328-1.678c-0.008-0.548-0.108-1.063-0.241-1.594         c-0.273-1.054-0.754-2.141-1.454-3.264c-0.702-1.315-1.404-2.29-1.888-2.979c-0.496-0.688-0.796-1.099-0.917-1.307         c-0.248-0.415,0.231-0.02,0.881,0.624c1.326,1.269,3.014,3.613,1.818,1.528c0,0-0.513-0.632-1.365-1.536         c-0.851-0.905-2.058-2.063-3.288-3.131c-0.308-0.264-0.616-0.526-0.919-0.786l-0.364-0.289l-0.309-0.236         c-0.409-0.304-0.791-0.587-1.119-0.83c-0.662-0.473-1.103-0.788-1.103-0.788c-1.585-1.394-0.893-1.164-0.531-1.052         c-2.934-2.202-3.295-2.007-3.996-2.193c-0.363-0.083-0.817-0.251-1.83-0.773c-0.512-0.259-1.151-0.607-2.082-1.05         c-0.473-0.217-1.013-0.469-1.761-0.708c-0.522-0.162-1.101-0.341-1.743-0.54c-1.578,0.123-6.652-2.207-12.904-5.057         c-3.065-1.389-6.42-2.909-9.755-4.42c-1.174-0.596-2.404-1.55-3.519-2.601c-1.12-1.056-2.153-2.212-3.073-3.361         c-0.59-1.322-0.238-1.1,0.209-0.694c0.459,0.408,1.081,0.965,1.04,0.49c-1.14-1.526-1.875-2.975-2.315-4.191         c-0.113-0.356-0.172-0.45-0.213-0.651l-0.027-0.139l-0.041-0.29c-0.026-0.191-0.053-0.379-0.078-0.563         c-0.103-0.737-0.198-1.421-0.287-2.061c-0.366-2.558-0.631-4.413-0.882-6.167c-0.263-1.752-0.527-3.4-0.889-5.546         c-0.182-1.048-0.384-2.219-0.621-3.584c-0.037-0.166-0.068-0.604-0.101-0.949c-0.029-0.369-0.059-0.752-0.091-1.149         c-0.048-0.802-0.1-1.663-0.156-2.591c0,0,0.304-3.167,0.743-6.317c0.423-3.157,0.995-6.246,0.995-6.247         c-0.946,4.536-1.337,3.89-1.483,0.721c-0.027-0.793-0.034-1.721,0.005-2.789c0.012-1.071,0.024-2.254,0.038-3.504         c0.057-2.491,0.12-5.248,0.18-7.91c-0.777,3.286-1.451,6.092-1.831,7.984l1.187-16.888c0.408-2.007,0.623-0.266,0.81,2.549         c0.02-1.16,0.039-2.257,0.054-3.114c1.074-5.961,1.405-2.765,1.588,1.625c-0.461,2.02-0.918,4.022-1.363,5.971         c0.255,4.243,0.613,8.23,1.383,7.451c-0.016-1.11,0.096-3.231,0.281-5.555c0.074,1.111,0.169,1.827,0.338,1.337         c0.183-0.556,0.117-2.345,0.117-5.134l1.7-3.667l-0.412-0.991l3.174-21.933c0.036-1.926,0.072-3.822,0.108-5.712         c0.02-0.641,0.133-1.265,0.301-1.752c0.178-0.517,0.473-1.016,0.877-1.444c0.824-0.86,2.064-1.345,3.495-1.248         c0.374,0.027,0.76,0.092,1.153,0.186l0.295,0.079l0.019,0.005l0.009,0.002c-1.213-0.778-0.331-0.211-0.599-0.383l0.039,0.029         l0.077,0.059l0.154,0.118l0.619,0.472c0.826,0.635,1.663,1.278,2.515,1.933c6.8,5.252,14.392,11.36,23.846,19.64         c-5.244-3.504-2.037,0.244-3.049,0.847c-4.256-5.508-14.707-12.756-24.156-21.723c4.931,4.678,3.467,4.066,2.064,3.039         l17.876,14.87c-1.009,0.327,3.174,3.838,7.395,8.213c-2.155-4.44,13.598,10.786,20.95,16.75         c0.02,0.848-2.074-0.22-10.484-8.108c4.232,4.798,7.626,7.176,11.016,9.515c0.805,0.558,1.609,1.114,2.438,1.688         c0.702,0.563,1.485,1.318,2.216,2.125c1.479,1.643,2.947,3.707,4.283,6.437c-1.444-2.312-2.234-3.563-3.107-4.251         c1.036,1.199,2.319,2.959,3.519,4.918c0.602,0.978,1.182,2.005,1.706,3.025c0.263,0.51,0.508,1.018,0.737,1.517         c0.281,0.603,0.593,1.371,0.855,2.031c0.071,0.167,0.124,0.347,0.208,0.498c0.14,0.105,0.292,0.196,0.436,0.293         c0.291,0.192,0.574,0.379,0.851,0.562c0.515,0.347,1,0.674,1.451,0.978c0.726,0.504,1.33,0.94,1.764,1.276         c0.869,0.671,1.058,0.939,0.176,0.544l-2.418-1.502c1.998,1.274,4.256,2.714,6.684,4.263         c0.608,0.385,1.228,0.776,1.855,1.173c0.262,0.158,0.752,0.494,1.207,0.743c0.458,0.263,0.937,0.49,1.426,0.693         c1.95,0.802,4.169,1.084,6.238,0.468c2.077-0.588,3.845-2.123,4.846-4.083c0.515-0.978,0.84-2.054,1.065-3.173l0.311-1.423         l0.267-1.056l0.15-0.523c0.027-0.139,0.124-0.262,0.093-0.414c-0.028-0.151-0.111-0.317-0.053-0.443         c0.11-0.539,0.225-1.063,0.351-1.56c0.063-0.248,0.128-0.489,0.2-0.717c0.03-0.115,0.085-0.221,0.102-0.33l-0.056-0.365         l-0.224-1.53c-0.229-0.498-0.516-0.981-0.781-1.465l-0.769-1.322c-0.416-0.691-0.836-1.368-1.26-2.031         c-1.697-2.649-3.436-5.094-5.149-7.287c-0.857-1.096-1.71-2.127-2.561-3.085c-0.35-0.393-0.617-0.599-0.764-0.968         c-0.244-0.473-0.479-0.931-0.705-1.37c-1.952-3.797-3.416-6.331-4.054-6.811c0.107-0.249,2.705,1.48,3.451,2.382         l-9.18-14.161l-2.297-3.545c-0.747-1.196-1.583-2.325-2.219-3.61c-1.275-2.564-2.086-5.382-2.591-8.273         c0.709,1.499,1.76-0.7,2.834-1.152c0.534-0.243,1.023-0.089,1.461,0.98c0.222,0.534,0.437,1.299,0.698,2.344         c0.262,1.041,0.57,2.383,1.074,3.944c-0.379-1.837-0.618-4.063-0.611-6.822c0.008-1.376,0.081-2.895,0.304-4.5         c0.115-0.797,0.269-1.62,0.485-2.405l0.053-0.2l0.029-0.091l0.068-0.182c0.095-0.254,0.191-0.512,0.289-0.773         c0.192-0.523,0.389-1.06,0.592-1.611c-0.338,0.682-0.802,1.411-1.284,2.063c-0.285,0.422-0.371,0.355-0.592,0.664         c-0.189,0.237-0.376,0.453-0.543,0.634c-0.646,0.738-1.188,0.732-0.715-1.117c1.393-2.438,2.331-4.079,3.061-5.356         c0.73-1.313,1.231-2.265,1.758-3.295c1.053-2.061,2.21-4.437,5.516-10.659c-1.015,2.041-1.511,1.694-1.398,0.012         c0.057-0.841,0.266-2.016,0.64-3.393c0.098-0.338,0.2-0.691,0.306-1.056c0.044-0.148,0.089-0.299,0.134-0.453         c0.037-0.16,0.102-0.309,0.207-0.438c0.337-0.509,0.918-1.27,1.476-1.936c-0.232,0.531,0.261,0.741,0.626,1.088         c0.183,0.174,0.333,0.381,0.348,0.679c0.007,0.149-0.02,0.32-0.093,0.521c-0.037,0.1-0.084,0.208-0.146,0.324         c-0.05,0.09-0.106,0.19-0.168,0.301c-0.101,0.127,0.536-0.88,1.424-2.256c0.904-1.397,2.137-3.255,3.396-5.101         c2.509-3.7,5.154-7.299,5.154-7.299c-1.37,1.749-1.172,2.191-0.261,1.871c0.457-0.158,1.094-0.502,1.811-0.952         c0.807-0.509,1.565-1.153,2.318-1.812c-1.497,1.154,10.013-11.811,12.94-15.595l-5.249,5.487         c13.271-15.251,10.726-17.175,23.733-32.428c-1.246,2.133-1.913,6.302,4.86-1.327c0.556-1.047,1.434-2.838,2.6-4.968         c1.239-2.185,2.806-4.818,4.487-7.874c0.102-0.196,0.204-0.386,0.295-0.605l0.033-0.092c0.004-0.01,0.014-0.05,0.016-0.079         l-0.003-0.039c-0.006-0.067-0.005-0.076-0.002-0.104c-0.003-0.014,0.022-0.029,0.059-0.01c0.044,0.06,0.157,0.021,0.189-0.02         c0.086-0.076,0.154-0.163,0.217-0.253l0.042-0.067l0.009-0.017c0.042,0.013-0.087-0.04,0.094,0.026         c0.021,0.001,0.008,0.003,0.014,0.004l0.016,0.021c0.027,0.039,0.064,0.082,0.1,0.123c0.145,0.165,0.304,0.324,0.463,0.484         c0.642,0.637,1.323,1.269,2.02,1.912c1.396,1.283,2.865,2.6,4.386,3.933c3.072,2.746,6.112,5.81,9.138,9.058l1.743,2.994         l9.284,9.946c-3.321-2.714-9.438-8.066-15.896-13.877c-1.609-1.458-3.245-2.94-4.868-4.411         c-1.587-1.437-3.322-2.894-4.856-4.382c-0.78-0.742-1.537-1.485-2.271-2.24c-0.368-0.379-0.727-0.757-1.093-1.17         c-0.189-0.22-0.355-0.397-0.611-0.763l-0.128-0.208l-0.12-0.242c-0.028-0.065-0.021-0.036-0.075-0.18         c-0.076-0.212-0.131-0.441-0.158-0.669c2.321,0.641-5.248-1.919,5.212,1.353l-0.045,0.063l-0.094,0.123l-0.139,0.165         l-0.173,0.189c-0.112,0.115-0.203,0.208-0.38,0.352c-0.093,0.072-0.147,0.124-0.367,0.257         c-0.107,0.062-0.151,0.091-0.316,0.169c-0.566,0.276-1.458,0.358-2.125,0.136c-0.144-0.039-0.372-0.136-0.405-0.153         l-0.011-0.003l-0.022-0.006c2.326-5.153,0.644-1.428,1.163-2.578l-0.001,0.001v0c0.008-0.004,0.017-0.038,0.016-0.046         c-0.025-0.027,0.064,0.097,0.241,0.067l0.15,0.058l0.075,0.029l0.038,0.015c4.752-0.095,1.313,0.188,2.359,0.265         c-0.026,0.252-0.085,0.506-0.169,0.74l-0.093,0.231c-0.04,0.093-0.103,0.217-0.137,0.28l-0.223,0.389         c-0.161,0.257-0.321,0.513-0.479,0.766c-0.273,0.413-0.542,0.818-0.806,1.215c-0.524,0.752-1.027,1.474-1.505,2.159         c1.391-1.395,2.184-2.191,2.722-2.73c0.292-0.294,0.515-0.51,0.795-0.842c0.084-0.108,0.146-0.174,0.292-0.403         c0.03-0.048,0.053-0.076,0.135-0.231l0.096-0.189l0.045-0.096l0.071-0.172c0.115-0.305,0.198-0.637,0.237-0.968l0.023-0.247         l0.006-0.123l0.001-0.061c3.009-0.071-4.097,0.023-3.367,0.019l-0.037-0.015l-0.149-0.058         c-0.111-0.063-0.167-0.007-0.243-0.048c-0.052-0.014-0.079-0.052-0.08-0.057c0.003,0,0,0.026-0.009,0.043         c-0.003,0.008-0.009,0.012-0.006,0.01l0.001-0.001l0.001,0l0.001,0c-3.274,7.111-0.907,1.972-1.637,3.559l0.001,0.001         l0.02,0.011l0.011,0.006c0.202,0.095,0.427,0.181,0.672,0.248c0.49,0.137,1.064,0.186,1.604,0.117         c0.27-0.033,0.529-0.092,0.768-0.168c0.207-0.06,0.547-0.216,0.499-0.196l0.203-0.101c0.135-0.071,0.27-0.149,0.397-0.233         l0.199-0.136c0.276-0.2,0.403-0.313,0.586-0.479l0.147-0.143c0.056-0.059,0.078-0.073,0.223-0.243l0.168-0.21l0.021-0.027         c-3.307-1.068,7.416,2.373-7.411-2.399l0.001,0.077c0.002,0.103,0.008,0.207,0.019,0.312c0.02,0.209,0.056,0.421,0.107,0.627         c0.026,0.103,0.055,0.205,0.088,0.305l0.071,0.2l0.047,0.118l0.105,0.235c0.203,0.409,0.27,0.501,0.355,0.65         c0.306,0.503,0.572,0.889,0.962,1.43c0.767,1.049,1.898,2.508,3.816,4.732c1.15,1.748-0.078,0.7-1.832-1.181         c-0.878-0.948-1.868-2.084-2.802-3.268c-0.239-0.305-0.463-0.594-0.732-0.976l-0.227-0.335l-0.162-0.263l-0.117-0.208         l-0.094-0.183l-0.123-0.269l-0.057-0.136l-0.07-0.189c-0.041-0.117-0.078-0.237-0.11-0.359         c-0.065-0.244-0.113-0.495-0.142-0.746c-0.015-0.125-0.025-0.25-0.03-0.375l-0.005-0.185         c18.195,5.833,5.03,1.635,9.085,2.946c-0.115,0.159-0.291,0.369-0.379,0.464c-0.117,0.13-0.245,0.261-0.335,0.345         c-0.196,0.187-0.406,0.379-0.793,0.651c-0.098,0.069-0.333,0.217-0.501,0.307l-0.28,0.144l-0.13,0.058l-0.234,0.095         c-0.161,0.061-0.331,0.115-0.508,0.162c-0.355,0.093-0.741,0.152-1.133,0.166c-0.788,0.031-1.573-0.143-2.179-0.403         l-0.212-0.093l-0.006-0.002l-0.003-0.001c0.922-1.987-2.068,4.447,2.067-4.456l-0.002,0.001l-0.001,0         c0.011-0.005,0.02-0.047,0.016-0.052c-0.002,0,0.021,0.041,0.096,0.063c0.042,0.015,0.086,0.015,0.127,0.004l0.172,0.066         l0.086,0.033l0.021,0.008c-3.945,0.063,5.388-0.098,4.425,0l-0.006,0.177c-0.011,0.237-0.039,0.478-0.084,0.716         s-0.106,0.473-0.182,0.697l-0.11,0.296l-0.028,0.068l-0.124,0.271c-0.331,0.636-0.365,0.628-0.473,0.806         c-0.312,0.452-0.456,0.629-0.621,0.846c0,0,0.081-0.102,0.234-0.294c0.093-0.123,0.207-0.275,0.341-0.454         c0.092-0.136,0.173-0.224,0.437-0.691l0.162-0.323l0.074-0.167l0.068-0.17c0.052-0.135,0.098-0.275,0.139-0.417         c0.081-0.285,0.139-0.583,0.171-0.88c0.016-0.148,0.025-0.296,0.028-0.443c0.97-0.114-8.419,0.009-4.452-0.037l-0.013-0.005         l-0.107-0.042c-0.149-0.083-0.278-0.035-0.34-0.087c-0.067-0.055-0.028-0.052-0.046-0.006         c-0.005,0.016-0.015,0.021-0.008,0.017l0,0c-0.93,2.003,2.084-4.484-2.085,4.49l0.008,0.004l0.017,0.007l0.017,0.008         c0.199,0.093,0.417,0.18,0.652,0.253c0.468,0.148,1.005,0.239,1.549,0.238c0.543,0.001,1.084-0.088,1.557-0.237         c0.224-0.068,0.484-0.174,0.631-0.243l0.099-0.048c0.131-0.064,0.261-0.135,0.388-0.21c0.308-0.184,0.385-0.249,0.51-0.338         l0.182-0.139l0.127-0.104l0.238-0.209l0.229-0.22l0.134-0.139l0.226-0.258l0.148-0.187l0.072-0.096         c-18.412-5.868-5.102-1.468-9.206-2.705l0.022,0.28c0.041,0.375,0.124,0.753,0.243,1.107l0.097,0.265l0.042,0.102         c0.058,0.136,0.12,0.271,0.188,0.403l0.088,0.166c0.225,0.399,0.313,0.519,0.422,0.69c0.4,0.6,0.75,1.076,1.156,1.624         c0.799,1.073,1.727,2.257,2.75,3.509c0.518,0.621,1.053,1.262,1.597,1.913c0.277,0.322,0.558,0.647,0.839,0.973l0.374,0.427         l0.387,0.468c4.188,5.103,8.374,10.206,8.374,10.206c0.163-1.706,13.936,14.613,14.05,13.167l-19.435-21.065         c0.172-1.691,13.295,10.372,25.183,24.796c2.701,3.958-3.922-1.272-3.977-0.705c1.88,1.576,12.043,13.027,12.928,14.538         l-5.603-5.625c3.185,4.13,6.226,7.106,9.369,10.341c0.392,0.406,0.785,0.814,1.185,1.228c0.428,0.412,0.859,0.828,1.299,1.25         c0.826,0.808,1.661,1.667,2.505,2.593c1.688,1.852,3.42,3.969,5.188,6.515c0.672,0.826,1.44,1.914,2.212,3.082         c0.19,0.292,0.383,0.589,0.577,0.887l0.14,0.22l0.066,0.129c0.047,0.09,0.083,0.167,0.113,0.237         c0.076,0.139,0.066,0.321,0.1,0.468c-0.002,0.021,0.02,0.096,0.05,0.192l0.076,0.256l0.152,0.505         c0.807,2.671,1.533,4.892,2.012,5.095c-1.445-7.026,2-9.972,4.788-6.056c0.249,0.715,2.119,6.072,4.13,11.834         c0.979,2.891,1.994,5.883,2.862,8.446c0.106,0.321,0.21,0.636,0.311,0.943c0.127,0.34,0.2,0.697,0.27,0.999         c0.14,0.626,0.228,1.216,0.292,1.758c0.126,1.083,0.146,1.974,0.129,2.604c-0.095,1.821-0.428,2.039-0.757,1.496         c-0.344-0.543-0.771-1.848-1.326-3.085c-0.274-0.619-0.577-1.221-0.878-1.712c-0.146-0.234-0.309-0.494-0.434-0.62         c-0.06-0.072-0.132-0.133-0.193-0.188c-0.078-0.083-0.15-0.158-0.215-0.225c-0.271-0.268-0.466-0.371-0.548-0.22         c-0.041,0.075-0.053,0.213-0.032,0.426c0.014,0.099,0.029,0.216,0.048,0.354c0.004,0.084,0.008,0.182,0.013,0.292         c0.194,0.037,0.639,0.805,1.007,1.84c0.372,1.028,0.647,2.293,0.762,3.047c-0.029,2.112-0.346,1.677-0.532,1.859         c-0.103,0.09-0.183,0.332-0.253,1.108c-0.082,0.771-0.125,2.101-0.447,4.28c0.243,0.407,0.164,1.754-0.241,3.185         c-0.099,0.36-0.228,0.718-0.348,1.038c-0.179,0.411-0.359,0.824-0.536,1.23c-0.366,0.807-0.719,1.583-1.017,2.238         c-1.219,2.627-1.533,3.244,2.076-3.464c-3.548,8.854-4.391,9.215-8.938,19.537c1.1-1.479,0.689,1.112-0.449,5.196         c-0.283,1.018-0.618,2.141-0.976,3.295l-0.137,0.439c-0.057,0.142-0.161,0.255-0.237,0.39         c-0.167,0.261-0.332,0.532-0.489,0.807c-0.316,0.549-0.618,1.115-0.911,1.69c-1.167,2.304-2.215,4.739-3.135,6.939         c-0.051-0.647-1.327,1.138-1.892,2.048c-0.951,2.281-1.742,4.481-2.252,6.655c-0.247,1.089-0.434,2.168-0.414,3.265         c0.03,1.092,0.347,2.139,0.816,3.081c0.481,0.939,1.214,1.756,2.123,2.28c0.906,0.53,1.957,0.752,2.967,0.723         c1.018-0.022,1.992-0.292,2.896-0.671c0.913-0.377,1.709-0.943,2.497-1.399c3.222-1.937,6.407-3.853,9.786-5.884l0.345-0.209         l0.173-0.105c0.049-0.042,0.062-0.115,0.092-0.174l0.325-0.744c0.215-0.483,0.473-1.031,0.682-1.446         c0.441-0.884,0.918-1.773,1.429-2.67c1.02-1.794,2.163-3.625,3.449-5.502c0.591-0.612,2.243-2.645,3.62-3.972         c1.412-1.365,2.281-1.899,1.358-0.523l0.512-0.682c0.209-0.237,0.421-0.477,0.639-0.723c0.465-0.514,0.956-1.057,1.512-1.671         c1.125-1.213,2.546-2.665,4.631-4.591c8.833-6.622-9.231,8.665-2.18,3.965c0.042-1.015,10.167-10.643,15.831-16.431         c-2.588,0.857-13.934,12.45-19.607,18.246c-1.063-1.108,8.256-11.808,21.977-25.314c11.027-10.598,5.563-3.741,7.374-5.693         c5.345-4.795,9.032-8.349,11.845-11.22c1.406-1.436,2.593-2.701,3.659-3.865c0.539-0.592,1.051-1.155,1.547-1.7         c0.344-0.345,0.682-0.684,1.016-1.019c0.352-0.315,0.634-0.747,1.092-0.888c1.673-0.818,3.558-1.298,5.573-1.143         c2,0.146,4.152,0.963,5.909,2.728c0.875,0.877,1.631,1.988,2.183,3.3c0.13,0.331,0.261,0.666,0.368,1.03         c0.106,0.329,0.185,0.664,0.263,1.005c0.07,0.339,0.133,0.688,0.178,1.053c0.049,0.367,0.06,0.565,0.091,0.864         c0.212,2.21,0.408,4.743,0.589,7.72c0.038,9.514-1.889,0.65-2.365,2.816c-0.425-3.085-0.726-5.82-0.954-8.319         c-0.138-1.258-0.152-2.414-0.364-3.624c-0.226-1.18-0.669-2.32-1.315-3.281c-1.28-1.955-3.443-3.132-5.691-3.266         c-1.124-0.071-2.27,0.082-3.363,0.443c-0.271,0.091-0.555,0.177-0.807,0.312l-0.659,0.574         c-0.433,0.379-0.917,0.801-1.277,1.14c-0.054,0.22,2.011-2.448,5.084-2.333c1.443-0.09,2.861,0.273,3.805,0.749         c0.952,0.471,1.467,0.958,1.467,0.958c-0.881-0.593-2.153-1.143-3.63-1.237c-1.457-0.091-3.121,0.181-4.503,0.969         c-2.338,2.215-4.667,4.341-6.449,5.775c0.806-0.588,1.972-1.538,3.428-2.78c0.722-0.624,1.521-1.315,2.387-2.065         c0.448-0.336,0.8-0.864,1.424-0.986c0.575-0.195,1.188-0.344,1.827-0.417c1.273-0.15,2.681,0.002,3.954,0.642         c1.271,0.631,2.366,1.74,3.016,3.124c0.338,0.685,0.559,1.434,0.703,2.216c0.135,0.771,0.184,1.619,0.281,2.441         c0.174,1.662,0.353,3.364,0.533,5.093c1.458,13.837,3.092,29.432,3.897,40.511c0.928,3.82,1.722,10.586,1.872,7.346         c0,0-0.174-1.748-0.393-3.491c-0.214-1.744-0.491-3.48-0.491-3.48c-0.034-1.616,0.175-1.626,0.391-0.851         c0.262,0.743,0.601,2.327,0.869,3.81c0.532,2.979,0.915,5.68,0.699,1.196c0.371,2.354,0.717,4.782,1.009,7.32         c0.146,1.27,0.277,2.566,0.384,3.898c0.047,0.669,0.093,1.345,0.141,2.028c0.017,0.344,0.033,0.69,0.05,1.039l0.02,0.552         c0.013,0.225-0.006,0.477-0.018,0.679c-0.253,5.484-0.664,11.356-1.478,18.014c0,0-0.09,0.202-0.226,0.504         c-0.12,0.299-0.354,0.673-0.608,1.019c-0.51,0.697-1.107,1.243-1.107,1.243c0.099-0.041,0.532-0.628,0.897-1.676         c0.098-0.261,0.148-0.556,0.192-0.874c0.04-0.282,0.083-0.582,0.129-0.896c0.073-0.566,0.154-1.183,0.238-1.826         c0.311-2.576,0.576-5.587,0.571-7.456c0.001,1.385-0.204,3.333-0.498,5.573c-0.155,1.118-0.321,2.311-0.492,3.543         c-0.048,0.333-0.095,0.668-0.143,1.005c-0.043,0.384-0.118,0.765-0.26,1.13c-0.252,0.722-0.644,1.462-1.007,2.048         c-1.52,2.387-3.366,4.279-4.997,6.021c-1.64,1.724-3.107,3.224-4.066,4.506c2.605-1.861,5.091-3.881,7.414-6.261         c-1.512,2.038-3.23,4.027-5.149,5.99c-1.934,1.957-4.019,3.888-6.551,5.685c-0.642,0.448-1.313,0.887-2.072,1.31         c-0.383,0.211-0.786,0.418-1.241,0.617c-0.437,0.2-1.08,0.407-1.291,0.484c-1.286,0.479-2.585,0.961-3.893,1.446         c-2.659,1.001-5.381,2.009-8.122,2.954c2.663-0.418,3.277-0.672,4.248-1.037c0.962-0.352,2.321-0.861,6.351-1.543         c-1.787,0.185-0.938-0.33,1.103-1.085c0.248-0.086,0.515-0.179,0.796-0.276c0.498-0.154,1.015-0.358,1.457-0.559         c0.902-0.409,1.728-0.866,2.536-1.358c1.614-0.983,3.178-2.109,4.655-3.272c2.946-2.313,5.496-4.822,6.717-6.302         c0.61-0.734,0.892-1.185,0.726-1.173c-0.168,0.006-0.778,0.482-2.009,1.451c1.859-1.389,3.469-2.879,4.918-4.747         c0.361-0.472,0.713-0.972,1.051-1.526c0.316-0.509,0.728-1.294,1.008-2.022c0.302-0.743,0.488-1.528,0.563-2.337         c0.064-0.529,0.129-1.063,0.194-1.601c0.486-4.003,0.973-8.337,2.101-13.852c-0.198,0.156-0.461,1.127-0.543,0.835         c-0.041-0.146-0.036-0.608,0.043-1.646c0.049-0.542,0.111-1.234,0.19-2.112c0.05-0.84,0.03-1.173,0.044-1.755         c0.002-0.541,0.004-1.133,0.005-1.78c-0.115-0.463-0.283-1.547-0.392-2.231c0-0.313,0-0.421,0-0.688         c-0.008,0.204-0.014,0.357-0.021,0.562c-0.073-0.437-0.085-0.475-0.008,0.211c-0.033,1.212-0.097,2.316-0.181,3.222         c-0.042,0.452-0.089,0.855-0.14,1.197c-0.065,0.395-0.119,0.717-0.159,0.957c-0.075-0.679-0.171-1.54-0.281-2.54         c-0.09-0.932-0.192-1.994-0.303-3.143c-0.215-2.286-0.465-4.902-0.767-7.533c-0.151-1.315-0.315-2.633-0.496-3.917         c-0.097-0.644-0.191-1.278-0.284-1.896c-0.052-0.312-0.104-0.619-0.153-0.921c-0.05-0.271-0.1-0.526-0.136-0.82         c-0.316-2.265-0.606-4.214-0.856-5.515c-0.449-5.829,0.681,2.374,0.729-0.845l-1.493-7.777         c0.728-0.882-0.31-15.586,1.635-1.974l-1.285-12.308c-0.162-3.648-0.465-7.968-0.853-12.138         c-0.194-2.085-0.409-4.133-0.639-6.042l-0.043-0.356l-0.081-0.542c-0.054-0.371-0.135-0.711-0.212-1.062         c-0.092-0.353-0.177-0.688-0.297-1.041c-0.122-0.393-0.266-0.748-0.41-1.102c-0.602-1.405-1.412-2.617-2.324-3.574         c-1.6-1.926-4.207-3.398-6.875-3.729c-2.672-0.38-5.22,0.281-6.952,1.078c-0.219,0.1-0.434,0.187-0.63,0.285         c-0.165,0.151-0.322,0.295-0.473,0.433c-0.297,0.273-0.563,0.517-0.794,0.729c-0.457,0.417-0.77,0.703-0.897,0.82         c-0.254,0.225,0.188-0.216,1.729-1.708c0,0-0.384,0.33-1.054,0.908c-0.167,0.145-0.353,0.304-0.554,0.478         c-0.101,0.087-0.205,0.177-0.314,0.271c-0.068,0.064-0.14,0.131-0.213,0.201c-0.267,0.257-0.567,0.547-0.896,0.863         c-1.313,1.265-3.063,2.951-4.813,4.637c-3.501,3.372-7.002,6.745-7.002,6.745l-0.271-0.03         c-7.111,6.432-14.168,13.342-21.593,20.356c-3.713,3.507-7.518,7.041-11.468,10.554c-0.993,0.873-1.989,1.75-2.991,2.63         l-0.44,0.385c-0.192,0.155-0.402,0.401-0.537,0.532l-0.774,0.819c-0.504,0.547-0.988,1.097-1.462,1.652         c-1.882,2.219-3.61,4.5-5.292,6.89c-0.851,1.494-1.663,3.026-2.458,4.701c-0.192,0.42-0.388,0.844-0.585,1.274         c-0.058,0.156-0.117,0.313-0.177,0.474c-0.032,0.078-0.05,0.168-0.093,0.24l-0.215,0.151         c-0.147,0.102-0.297,0.206-0.45,0.312c-1.598,1.037-3.354,2.155-5.27,3.35c-0.964,0.594-1.97,1.214-3.024,1.864         c-0.54,0.317-1.091,0.689-1.356,0.822c-0.334,0.176-0.663,0.304-0.955,0.377c0,0-0.284-0.098-0.462-0.251         c-0.19-0.149-0.245-0.336-0.245-0.336c-0.033,0.008-0.054,0.009-0.068,0.016c-0.005,0.001-0.007,0-0.011,0.006         c0.005-0.008-0.028,0.1-0.034,0.117c-0.047,0.148-0.095,0.165,0.043-0.005c0.104-0.11,0.038-0.046,0.042-0.08         c-0.009-0.026-0.035-0.048-0.06-0.109c-0.052-0.09-0.141-0.342-0.165-0.518c-0.021-0.094-0.028-0.19-0.027-0.287l0.007-0.145         l0.021-0.205c0.039-0.376,0.132-0.883,0.26-1.416c0.261-1.077,0.658-2.277,1.1-3.444c0.889-2.348,1.954-4.599,2.836-6.403         c0.885-1.813,1.596-3.18,1.848-3.946c0.338-0.354,0.726-0.76,1.159-1.214c0.195-0.201,0.401-0.412,0.617-0.633         c0.206-0.221,0.417-0.447,0.632-0.678c0.123-0.142,0.272-0.269,0.378-0.428c0.086-0.17,0.173-0.343,0.261-0.517         c0.168-0.336,0.34-0.678,0.515-1.026c0.106-0.2,0.215-0.404,0.325-0.611c0.216-0.417,0.438-0.849,0.669-1.293         c0.443-0.896,0.913-1.845,1.405-2.837c1.928-3.988,4.059-8.75,6.216-13.692c1.07-2.474,2.159-4.989,3.234-7.474         c0.221-0.487,0.662-1.569,0.907-2.362c0.271-0.837,0.487-1.653,0.666-2.452c0.354-1.598,0.574-3.139,0.705-4.639         c0.258-3,0.189-5.839-0.146-8.551c-0.176-1.358-0.416-2.681-0.762-3.986c-0.081-0.323-0.183-0.653-0.277-0.974l-0.182-0.564         c-0.066-0.221-0.159-0.422-0.243-0.628c-0.182-0.454-0.356-0.894-0.526-1.318l-1.064-0.147         c-1.924-4.635-3.881-9.144-6.004-13.911c-1.079-2.401-2.19-4.873-3.354-7.46l-0.353-0.797         c-0.113-0.268-0.22-0.541-0.433-0.751c-0.335-0.405-0.672-0.812-1.011-1.222c-0.481-0.559-0.97-1.125-1.463-1.697         c-0.999-1.121-2.022-2.27-3.076-3.452l-0.118,1.119c-1.89-1.961-3.953-4.265-6.226-6.804         c-0.573-0.635-1.157-1.285-1.753-1.946l-0.438-0.482c-0.124-0.135-0.248-0.267-0.394-0.454         c-0.28-0.346-0.563-0.695-0.849-1.047c-1.133-1.415-2.303-2.876-3.504-4.377c-4.789-6.014-10.025-12.673-15.529-19.132         c0.978,0.675,3.692,4.02,5.517,6.474c-5.851-8.362-12.997-16.313-20.041-24.047c-1.761-1.934-3.511-3.858-5.242-5.761         l-0.646-0.715l-0.69-0.728l-1.262-1.351c-0.829-0.908-1.637-1.83-2.41-2.757c-0.376-0.465-0.752-0.929-1.125-1.391         c-0.353-0.449-0.729-0.947-0.966-1.297c-0.022-0.033-0.053-0.08-0.046-0.07l-0.941,0.559         c-0.305,0.187-0.564,0.345-0.857,0.504l-0.763,0.405c-0.2,0.099-0.469,0.198-0.55,0.235c-0.032,0.008-0.066,0.011-0.101,0.01         c-0.438-0.247-0.222-0.136-0.363-0.224c-0.113-0.083-0.221-0.173-0.324-0.268c-0.221-0.223-0.317-0.281-0.473-0.439         l-0.301-0.302l0.16,0.179l0.201,0.246c0.173,0.202,0.33,0.452,0.458,0.636c0.065,0.097,0.095,0.24,0.18,0.275         c0.074,0.071,0.023,0.2,0,0.17l-0.019,0.006c5.932-4.285,1.515-1.358,2.773-2.387c-0.165-0.19-0.348-0.366-0.544-0.521         c-0.435-0.323-0.851-0.562-1.533-0.721c-0.556-0.147-1.486-0.125-2.19,0.166c-0.354,0.138-0.706,0.341-1.008,0.584         c-0.337,0.278-0.445,0.417-0.634,0.652c-0.166,0.217-0.313,0.459-0.423,0.691c-0.085,0.184-0.159,0.378-0.217,0.578         c-0.059,0.2-0.101,0.405-0.127,0.607l-0.016,0.14l-0.005,0.057c-0.78-0.067,6.869,0.647,3.586,0.341         c-0.029-0.003-0.057-0.012-0.083-0.024c-0.03-0.026-0.146-0.065-0.236-0.105c-0.294-0.147-0.872-0.473-1.342-0.79         l-0.913-0.594l-0.464-0.317c-0.088-0.063-0.022-0.021-0.041-0.036l-0.023,0.031c-0.222,0.293-0.636,0.785-1,1.202         c-1.531,1.748-3.17,3.442-4.812,5.013c-0.767,0.932-1.405,1.806-2.029,2.582c-0.627,0.788-1.229,1.516-1.816,2.201         c-1.174,1.37-2.285,2.567-3.397,3.728c0.273-0.327,0.508-0.629,0.7-0.896c-0.305,0.356-0.757,0.887-1.221,1.431         c-1.408,1.456-2.86,2.956-4.43,4.579c1.385-1.335,2.693-2.632,3.78-3.803c-2.267,2.712-5.646,6.876-8.882,11.029l-2.1,1.131         c-0.268,0.331-0.485,0.6-0.765,0.945c-3.567,3.727-2.362,3.443-0.095,1.778c-1.599,2.118-3.032,4.086-4.087,5.665         c-3.758,2.262-8.535,10.856-13.348,14.222c-0.434,0.799-1.689,2.484-3.339,4.611c-0.209,0.272-0.422,0.547-0.604,0.745         c-0.234,0.27-0.474,0.545-0.718,0.826c-0.489,0.57-0.996,1.162-1.515,1.767c-1.028,1.212-2.086,2.484-3.125,3.764         c-2.077,2.559-4.075,5.147-5.576,7.327c-0.41,0.607-0.794,1.178-1.147,1.703c-0.105,0.159-0.209,0.315-0.31,0.468         c-0.08,0.164-0.119,0.346-0.176,0.51c-0.098,0.319-0.215,0.685-0.27,0.908c-0.216,0.886-0.321,1.563-0.279,1.961         c-0.254,0.087-0.945,1.478,0.146-1.144c-2.439,5.335-4.876,10.665-6.517,15.681l-1.992,1.86l-0.898,3.095l-0.46,1.574         c-0.234,0.767-0.312,1.294-0.414,1.915c-0.358,2.397-0.337,4.693-0.135,6.946c-0.412,4.089-0.052,7.069-0.147,8.009         c-0.043,0.469-0.213,0.424-0.532-0.267c-0.309-0.692-0.762-2.028-1.145-4.147c0.367,2.566,0.915,4.727,1.594,6.607         c0.167,0.47,0.351,0.922,0.538,1.358c0.104,0.228,0.205,0.451,0.304,0.67c0.089,0.173,0.176,0.344,0.262,0.511         c0.337,0.658,0.649,1.266,0.939,1.833c1.156,2.271,1.949,3.894,2.706,5.438c1.515,3.088,2.886,5.86,6.72,12.839l-0.974-0.413         c0.585,1.292,1.31,2.754,2.082,4.272c0.41,0.808,0.829,1.632,1.248,2.457c0.15,0.246,0.21,0.546,0.431,0.743l0.569,0.617         c0.295,0.326,0.588,0.65,0.879,0.972c2.178,2.472,3.986,4.985,4.658,6.542c0.712,1.344,1.683,3.177,2.868,5.413         c0.175,0.366,0.357,0.748,0.548,1.145c0.088,0.197,0.188,0.398,0.266,0.601c-0.143,0.186-0.248,0.398-0.349,0.612         c-0.205,0.458-0.318,0.73-0.626,1.772c-0.125,0.429-0.247,0.884-0.352,1.301c-0.067,0.274-0.135,0.553-0.205,0.834         c-0.195,0.99-0.705,2.059-1.714,2.591c-0.998,0.546-2.282,0.396-3.331-0.141c-0.267-0.133-0.526-0.283-0.773-0.457         c-0.421-0.267-0.845-0.537-1.272-0.808c-0.885-0.559-1.783-1.126-2.692-1.7c-1.724-1.086-3.489-2.198-5.285-3.329         l-0.412-0.26l-0.207-0.13c-0.055-0.056-0.068-0.146-0.104-0.217l-0.194-0.451l-0.233-0.508         c-0.53-1.115-1.096-2.201-1.692-3.269c-1.191-2.137-2.492-4.213-3.901-6.25c-0.706-1.018-1.44-2.024-2.217-3.018         c-0.39-0.496-0.787-0.99-1.203-1.48l-0.635-0.732c-0.214-0.237-0.418-0.474-0.749-0.809c-1.77-1.643-3.539-3.284-5.297-4.915         c-6.928-6.455-13.63-12.805-19.421-18.53c3.229,5.826-10.525-10.909-12.586-10.566c-1.061-1.648-4.218-4.919-0.033-1.684         c-3.148-2.711-5.84-5.156-8.253-7.402c-1.201-1.13-2.34-2.202-3.434-3.23c-0.545-0.517-1.078-1.023-1.603-1.521l-0.098-0.093         l-0.024-0.023l-0.012-0.012c0.264,0.167-2.313-1.479-1.228-0.784l-0.011-0.005l-0.088-0.036l-0.353-0.144         c-0.232-0.098-0.479-0.178-0.719-0.262c-0.486-0.163-0.988-0.296-1.497-0.405c-2.093-0.44-4.45-0.313-6.438,0.478         c-2.02,0.768-3.744,2.171-4.944,3.928c-0.595,0.872-1.077,1.87-1.395,2.834c-0.314,0.955-0.496,1.893-0.58,2.866         c-0.028,0.276-0.027,0.416-0.033,0.59l-0.013,0.515c-0.006,0.344-0.012,0.69-0.018,1.039c0,0.698,0.001,1.407,0.002,2.128         c-0.704,1.83-0.352-3.614-0.828-1.968c-0.035,1.335-0.129,5.289-0.611,6.97c-0.478,1.644-0.159-2.463-0.096-5.098         c-1.725,16.849-0.373,18.74,0.936,20.142c-1.601,8.459-1.961,12.729-1.68,19.021c-0.791,2.915-1.817,7.81-0.86-2.684         c-0.195,1.464-0.504,4.465-1.036,8.088c-0.549,3.771-0.96,8.17-1.174,12.447c-0.104,2.139-0.158,4.241-0.121,6.237         c-0.008,0.3,0.034,0.739,0.059,0.948c0.023,0.233,0.047,0.463,0.07,0.69c0.048,0.455,0.095,0.899,0.14,1.331         c0.1,0.862,0.193,1.675,0.279,2.425c0.37,2.998,0.725,4.981,1.028,5.106c-0.065,0.938,0.096,3.004,0.308,5.029         c0.118,1.011,0.234,2.013,0.333,2.859c0.028,0.218,0.055,0.426,0.081,0.621c0.038,0.255,0.044,0.497,0.11,0.71         c0.111,0.429,0.219,0.785,0.292,0.981c0.503,1.857,1.196,3.355,1.897,4.651c0.706,1.294,1.439,2.379,2.167,3.338         c1.473,1.905,2.904,3.327,4.56,4.561c0.833,0.612,1.728,1.175,2.782,1.655c0.947,0.424,1.846,0.786,2.869,1.197         c2.026,0.808,4.394,1.71,7.469,2.847l-3.33-1.477c2.67,0.278,5.238,1.167,8.393,2.423c1.575,0.635,3.307,1.332,5.257,2.118         c0.979,0.386,2.015,0.785,3.127,1.19c0.533,0.189,1.082,0.385,1.646,0.585c0.438,0.172,0.952,0.436,1.475,0.73l-0.309-0.013         c2.315,1.506,4.121,3.11,5.548,4.365c0.715,0.64,1.34,1.222,1.894,1.745c0.524,0.508,0.987,0.955,1.4,1.354         c1.184,1.183,1.815,1.81,2.456,2.476c0.315,0.335,0.63,0.678,0.972,1.121c0.334,0.445,0.729,0.98,1.041,1.756         c0.156,0.374,0.241,0.894-0.067,1.357c-0.3,0.46-0.881,0.771-1.541,0.977c-1.336,0.401-3.075,0.476-5.003,0.233         c0,0,0.267,0.238,0.578,0.474c0.307,0.234,0.659,0.464,0.659,0.464c-0.178,0.481-1.523,0.669-3.457,0.317         c-0.483-0.089-1.092-0.236-1.66-0.424c-0.289-0.096-0.581-0.204-0.869-0.327c-0.143-0.063-0.285-0.128-0.425-0.197         c-0.165-0.086-0.332-0.172-0.5-0.259c-0.359-0.24-0.795-0.318-1.222-0.454c-0.366-0.109-0.74-0.221-1.12-0.335         c-0.758-0.23-1.542-0.469-2.349-0.714c-3.224-0.987-6.793-2.094-10.407-3.11c-3.722-1.033-6.848-1.879-11.624-2.717         c0,0,1.541,0.466,3.082,0.932c0.372,0.114,0.743,0.229,1.091,0.335c0.282,0.098,0.546,0.188,0.772,0.266         c0.444,0.154,0.741,0.258,0.741,0.258c-0.468-0.071-0.957-0.162-1.461-0.271c-0.591-0.121-1.228-0.265-1.872-0.423         c-1.296-0.318-2.687-0.703-4.201-1.145c-0.773-0.229-1.563-0.464-2.363-0.702c-0.669-0.24-1.354-0.438-2.06-0.552         c-0.705-0.106-1.433-0.154-2.167-0.024c-0.733,0.111-1.481,0.431-2.089,0.953c-1.233,1.088-1.674,2.618-1.848,4.018         c-0.044,0.358-0.069,0.719-0.073,1.082c-0.007,0.182-0.005,0.364,0.003,0.547l0.007,0.274         c0.031,0.09,0.082,0.178,0.122,0.268c0.348,0.729,0.691,1.449,1.028,2.155c1.376,2.886,2.782,5.82,4.088,8.231         c0.138,0.296,0.179,0.364,0.187,0.41c0.007,0.042-0.031,0.02-0.104-0.054c-0.157-0.183-0.518-0.774-0.953-1.479         c-0.875-1.459-2.128-3.546-3.008-5.013c0.845,1.629,1.59,3.066,2.249,4.336c0.651,1.229,1.313,2.596,1.663,3.015         c0.813,1.21,1.4,2.034,1.833,2.588c0.865,1.106,1.112,1.131,1.301,1.002c0.378-0.257,0.528-1.129,4.944,4.812         c1.087,2.577-3.323-1.948,2.383,6.219c2.483,4.326,18.448,22.328,25.399,34.067c-1.356-2.711-2.703-5.405,1.591-0.022         c3.136,4.234,6.917,10.286,10.758,16.138c0.971,1.455,1.938,2.903,2.883,4.319c0.304,0.438,0.606,0.872,0.906,1.303         c0.163,0.284,0.429,0.475,0.659,0.695l0.7,0.615c0.735,0.62,1.471,1.169,2.202,1.669c2.926,1.985,5.792,3.247,8.28,3.929         c1.266,0.688,1.746,0.986,1.758,1.122c1.04,0.347,2.257,0.723,3.651,1.057c0.592,0.148,1.723,0.376,2.686,0.525         c0.502,0.016,1.015-0.137,1.53-0.198c0.396-0.067,0.796-0.136,1.202-0.205c2.864-0.509,5.989-1.063,9.016-1.602         c0.756-0.138,1.506-0.274,2.244-0.409c0.494-0.087,0.985-0.174,1.47-0.26c0.505-0.101,1.041-0.103,1.419-0.49         c0.409-0.298,0.813-0.592,1.211-0.882l0.503-0.381l0.417-0.325c0.541-0.437,1.063-0.858,1.563-1.261         c1.971-1.634,3.492-3.044,4.329-3.966c0.972-0.291,2.308-1.026,3.887-2.124c0.79-0.548,1.639-1.188,2.535-1.915         c0.415-0.349,0.845-0.709,1.288-1.08c0.129-0.102,0.237-0.231,0.399-0.291c0.193-0.1,0.39-0.199,0.588-0.301         c2.238-1.169,4.665-2.507,7.159-3.914c2.456-1.408,4.992-2.862,7.477-4.287c2.337-1.283,4.835-2.322,7.132-2.974         c0.573-0.161,1.133-0.297,1.665-0.398c0.267-0.053,0.523-0.091,0.771-0.125l0.225-0.031l0.304-0.001l0.612-0.01         c0.404-0.01,0.793-0.038,1.158-0.06c0.361-0.014,0.717-0.063,1.065-0.186c0.694-0.242,1.279-0.67,1.774-1.123         c0.989-0.922,1.675-1.981,2.234-2.94c0.275-0.475,0.528-0.961,0.732-1.362c0.183-0.354,0.35-0.68,0.501-0.973         c0.6-1.165,1.01-1.817,1.341-1.697c0,0,0.13-0.425,0.313-1.221c0.09-0.41,0.192-0.877,0.276-1.567         c0.016-0.175,0.032-0.354,0.049-0.54c0.006-0.158,0.013-0.32,0.019-0.486c0.009-0.26,0.018-0.533,0.027-0.818         c0.096-2.312,0.223-5.395,0.351-8.477c0.313-6.17,0.625-12.34,0.625-12.34l0.249,0.665         c1.026-15.806,0.659-21.437,0.288-27.037c0.384-3.644,0.501-0.959,0.63-0.648c1.79-23.073,1.794-25.38,1.443-44.837         l1.008-1.96c-0.122-2.642,0.676-10.972,1.523-21.483c0.201-2.628,0.413-5.393,0.631-8.237         c0.051-0.711,0.101-1.428,0.151-2.148l0.037-0.542l0.044-0.484l0.103-1.004c0.037-0.327,0.078-0.649,0.123-0.933l0.067-0.378         l0.027-0.124l0.003-0.006l0.001-0.002l0.001-0.001c-0.001,0,0.019,0.004-0.066-0.019c-0.507-0.153-0.88-0.238-1.271-0.368         l-0.574-0.205c-0.154-0.046-0.307-0.102-0.456-0.167c-0.327-0.162-0.517-0.215-0.707-0.375         c-0.074-0.042-0.125-0.079-0.164-0.149c-0.027,0.003-0.025-0.089-0.026-0.031c-0.005,0.016-0.011,0.017-0.024,0.032         c-0.019,0.033-0.042,0.063-0.07,0.086l-0.241,0.167c-0.174,0.093-0.482,0.244-0.79,0.362         c-0.269,0.081-0.727,0.273-1.101,0.374l-1.044,0.296l0.005,0.023c0.029,0.138,0.077,0.445,0.113,0.745         c0.075,0.61,0.135,1.333,0.184,1.994l0.126,2.202c0.095,1.482,0.189,2.963,0.284,4.437c0.206,2.946,0.446,5.86,0.728,8.685         c-0.114-0.216-0.314-0.673-0.537-2.465c2.415,25.435,0.752,61.199,4.529,70.342l1.704,16.778         c-0.904-21.786,1.596,3.154,1.663-5.835c0.636,8.541,0.212,22.21-0.539,11.684l0.077-1.655         c-0.962-1.896-0.764,4.921-0.372,12.063c0.079,1.786,0.159,3.598,0.234,5.306c0.025,0.873,0.051,1.721,0.075,2.524         c0.051,0.922,0.146,1.697,0.236,2.43c0.371,2.882,0.793,4.803,0.465,4.738c0.088,0.319,0.225,0.8,0.372,1.248         c0.146,0.452,0.312,0.897,0.491,1.333c0.368,0.865,0.802,1.705,1.457,2.375c0.682,0.622,1.547,1.008,2.41,1.403l2.138,0.937         c2.462,1.063,4.895,2.109,7.28,3.199c1.191,0.545,2.371,1.099,3.514,1.67c0.571,0.285,1.133,0.575,1.669,0.87l1.743,0.948         c2.338,1.268,4.671,2.534,7,3.797l3.488,1.898l1.741,0.949l0.581,0.32c0.16,0.09,0.271,0.244,0.414,0.363         c1.99,1.839,4.043,3.585,6.106,5.279c2.069,1.695,4.162,3.342,6.32,4.941l1.744,1.263l1.184,0.819         c0.205,0.118,0.382,0.311,0.61,0.367l0.71,0.11l4.365,0.681c2.574,0.403,5.143,0.806,7.705,1.207l2.008,0.312l1.436,0.209         c0.478,0.01,0.952-0.144,1.427-0.219l0.721-0.153l0.571-0.138l1.052-0.282c0.692-0.199,1.367-0.418,2.034-0.649         c2.662-0.935,5.171-2.083,7.604-3.437c1.214-0.681,2.407-1.412,3.578-2.234c0.586-0.411,1.167-0.84,1.742-1.309l0.512-0.428         l0.555-0.488c0.372-0.317,0.6-0.767,0.906-1.144c6.053-8.286,12.011-16.483,17.876-24.644l-3.777,2.988l8.223-11.353         c2.395-2.811,3.722-3.409-2.145,4.689c3.676-3.837,9.25-14.004,9.18-14.403c11.837-15.605-3.19,7.122,0.332,2.257         l4.666-6.688l-1.197,1.405c3.406-5.691,3.278-6.504,10.329-16.237c4.643-6.028,2.938-2.694,4.723-5.099         c0.065,0.07,0.691-0.727,2.704-3.711c0,0,2.594-3.573,5.187-7.146l0.122-0.168l0.03-0.042l0.515-0.988l0.003-0.009         l0.005-0.016l0.012-0.031l0.043-0.127l0.169-0.512c0.107-0.348,0.205-0.706,0.291-1.076c0.169-0.743,0.29-1.537,0.304-2.408         c0.013-0.865-0.084-1.83-0.444-2.842c-0.349-1.002-1.003-2.036-1.849-2.758c-0.837-0.732-1.745-1.138-2.479-1.354         c-0.749-0.224-1.334-0.272-1.801-0.301c-0.461-0.021-0.795-0.004-1.02,0.011c-0.231,0.011-0.337,0.029-0.337,0.029         c0.001,0,0.179-0.01,0.524,0.004c0.331,0.008,0.845,0.045,1.491,0.172c0.653,0.139,1.482,0.389,2.342,0.928         c0.86,0.522,1.668,1.401,2.127,2.313c0.474,0.917,0.639,1.809,0.683,2.534c0.04,0.732-0.033,1.326-0.111,1.812         c-0.174,0.957-0.378,1.485-0.378,1.485c0.178-1.262,0.328-2.711-0.284-4.442c-0.31-0.849-0.893-1.752-1.703-2.378         c-0.801-0.643-1.714-0.961-2.491-1.091c-1.574-0.243-2.736,0.034-3.675,0.295c-0.473,0.137-0.885,0.292-1.255,0.444         c-0.224,0.089-0.277,0.12-0.368,0.163c-0.085,0.047-0.169,0.076-0.251,0.096c-0.205,0.062-0.388,0.116-0.542,0.162         c-0.194,0.059-0.354,0.111-0.474,0.157c-0.239,0.092-0.32,0.157-0.209,0.192c0.112,0.036,0.417,0.043,0.95,0.018         c0.272-0.026,0.449,0.027,0.742-0.033c0.069-0.014,0.142-0.028,0.217-0.043c0.118-0.028,0.24-0.059,0.367-0.089         c0.252-0.063,0.532-0.118,0.832-0.172c-0.224,0.035-0.449,0.087-0.689,0.142c-0.207,0.055-0.425,0.112-0.651,0.173         c-0.323,0.103-0.629,0.068-1.208,0.177c-1.047,0.155-2.229,0.354-3.526,0.589c-1.295,0.249-2.707,0.521-4.217,0.813         c-0.753,0.154-1.53,0.314-2.329,0.479c-0.36,0.074-0.726,0.15-1.096,0.227l-0.096-0.009         c-0.517-0.037-1.093,0.056-1.649,0.186c-1.114,0.26-2.151,0.663-2.475,0.447c-0.59,0.93-1.351,1.098-2.311,1.231         c0.284,0.157,0.698,1.272-0.145,1.326c-0.271-2.442-1.729-0.676-2.79-2.226c0.854,0.992-2.235,0.829-0.934,2.217         c-0.722-0.03-0.253-0.878-0.899-1.314c-0.693,0.652-1.615,0.714-2.602,0.712c-0.494-0.001-1.004-0.019-1.51,0.013         c-0.253,0.017-0.506,0.045-0.754,0.094c-0.338,0.063-0.753,0.173-1.093,0.35c0.073,0.31,0.67,0.625,0.259,1.261         c0,0-0.119-0.055-0.297-0.135c-0.192-0.075-0.405-0.199-0.727-0.279c-0.348-0.28-0.637-0.594-0.637-0.594         c-0.16,0.228,0.409,1.83-0.481,0.948c0.153,0.234,0.4,0.583,0.219,0.746c-1.773-0.281-3.479,0.253-5.321,0.444         c-0.909,0.091-1.839,0.086-2.688-0.183c-0.831-0.262-1.641-0.814-1.918-1.694c0.099,0.688-0.12,0.684-0.363,0.617         c0.098,0.196-0.28,0.739-0.407,1.155c-0.246-0.503-0.334-1.073-0.106-1.366c-0.205,0.275-0.805,0.877-1.082,0.984         c-0.323,0.127-0.032,0.024,0.038,0.052c-0.013,0.002-0.094-0.003-0.152,0.007c-0.041,0.005-0.041,0.007-0.03,0.004         c-0.017,0.004,0.003-0.001,0.009-0.002c-0.203,0.038-0.188,0.035-0.451,0.084c-0.366,0.079-0.739,0.233-1.058,0.518         c-0.683,0.551-0.921,1.636-1.626,2.135c0.541,0.042,0.827,0.237,1.076,0.563c0.245,0.321,0.455,0.761,0.727,1.171         c0.527,0.818,1.343,1.519,2.382,0.635c0.258,0.432-0.431,0.472-0.349,0.908c0.602-0.617,1.068-0.665,1.872-0.2l-0.125,0.168         c1.225,0.094,2.043,0.28,2.923,0.536c0.878,0.246,1.803,0.558,3.175,0.703l-0.26-0.846c0.573,0.073,0.719,0.328,1.011,0.518         c0.52-1.354-1.606,0.065-1.119-1.426c0.422,0.853,1.43,0.778,2.403,0.664c0.978-0.106,1.932-0.261,2.452,0.634         c0.939-0.236-0.518-0.891,0.398-1.129l0.397,0.446l0.027-0.736c0.624-0.077,1.188,0.418,1.383,0.834         c-0.183,0.016-0.411,0.29-0.57,0.387c0.264,0.076,0.55,0.045,0.837-0.057c0.274-0.094,0.612-0.288,0.785-0.43         c0.035-0.152,0.138-0.364,0.205-0.262c0.002-0.021-0.377-0.224-0.382-0.208c0.068-0.115,0.158-0.202,0.269-0.249l0.167-0.078         l0.411-0.121c0.557-0.143,1.127-0.287,1.694-0.433c1.135-0.294,2.243-0.659,3.114-1.431l-0.246-0.36         c1.352-1.097,1.326,0.143,2.921-0.596l-0.038,0.108c0.241-0.475,0.641-0.78,1.11-0.845c-0.313,0.564,1.011,0.711,0.579,1.356         c1.467-1.182,0.671-0.813,1.412-2.545l0.409,0.596c0.23-0.682,0.187-1.003,0.983-1.372c-0.552,0.727,0.772,0.872,0.182,1.8         c1.05,0.509,1.615-0.01,2.081-0.416c0.233-0.203,0.441-0.379,0.674-0.385c0.115-0.002,0.237,0.037,0.371,0.138         c0.033,0.024,0.067,0.054,0.103,0.086l0.053,0.053l0.544-0.059c0.729-0.074,1.458-0.13,2.188-0.166         c2.692-1.123,2.704-1.433,1.304-1.295c-0.699,0.069-1.753,0.25-3,0.497c-0.312,0.063-0.636,0.129-0.97,0.197l-0.251,0.052         l-0.02-0.002l-0.04-0.004c-0.055-0.004-0.109-0.003-0.165,0c-0.441,0.027-0.885,0.244-0.706-0.004         c-0.26-0.252-0.174-0.631,0.051-0.94c0.112-0.155,0.259-0.293,0.415-0.389c0.039-0.024,0.079-0.045,0.118-0.063         c0.532-0.133,1.057-0.264,1.569-0.392c1.117-0.272,2.183-0.519,3.146-0.724c1.95-0.455,3.788-0.735,5.755-0.974         c0.512-0.062,1.031-0.124,1.563-0.188c0.158-0.024,0.323-0.037,0.481-0.071l0.464-0.147c0.279-0.077,0.456-0.112,0.686-0.15         c0.837-0.164,1.802-0.092,2.009,0.167c0.016,0.031,0.033,0.051,0.028,0.073c0.005,0.006-0.006,0.022-0.008,0.023l0.039-0.054         c0.022-0.028,0.006-0.005-0.031,0.024l-0.133,0.097c-0.054,0.054-0.038,0.285-0.128,0.683         c-0.073,0.384-0.244,0.899-0.473,1.448l-0.093,0.211l-0.048,0.107l-0.023,0.054l-0.006,0.013l-0.003,0.007         c-0.087,0.168,0.751-1.441,0.394-0.757l-0.024,0.029c-0.131,0.157-0.263,0.315-0.396,0.477         c-0.265,0.322-0.535,0.651-0.813,0.989c-2.204,2.708-4.722,5.984-7.648,10.086c1.175-1.627,1.14-1.819,2.311-3.44         c-4.779,5.855-8.078,12.391-14.094,19.463c-2.1,4.874-7.046,9.729-6.744,11.782l10.492-15.225         c-5.796,8.74-10.146,17.712-20.86,31.273c0.547-1.263,3.226-5.661,5.107-8.656c-3.285,3.858-5.431,8.068-8.833,12.07         c-0.303-2.054,12.825-18.45,18.468-28.22c-3.65,4.052-11.516,17.878-9.501,12.382c-3.107,7.75-11.764,15.999-18.476,27.979         l-0.178-1.236c-0.568,0.922-1.44,2.339-2.432,3.947c-0.502,0.801-1.041,1.644-1.6,2.488l-0.852,1.264l-0.399,0.574         c-0.073,0.1-0.138,0.207-0.22,0.298c0.002,0.002,0.026-0.052,0.057-0.151c0.016-0.048,0.035-0.106,0.057-0.174         c0.013-0.036,0.017-0.062,0.038-0.112c0.035-0.069,0.072-0.143,0.11-0.219c0.308-0.609,0.718-1.422,1.127-2.235         c0.82-1.626,1.64-3.252,1.64-3.252c-0.707,1.192-1.441,2.35-2.196,3.479c-0.385,0.561-0.768,1.119-1.148,1.675l-0.287,0.408         l-0.143,0.125l-0.16,0.132c-1.707,1.379-3.845,2.557-6.004,3.52c-2.166,0.961-4.427,1.744-6.551,2.275l-0.784,0.184         l-0.3,0.05c-0.091,0.017-0.18,0.027-0.27,0l-0.386-0.059c-1.303-0.186-2.613-0.347-3.934-0.473         c1.372,0.202,2.593,0.382,3.676,0.541c0.177,0.027,0.349,0.054,0.515,0.08c0.074,0.013,0.146,0.025,0.215,0.038         c0.135,0.001,0.278-0.033,0.38-0.051c0.001,0,0.213-0.04,0.359-0.077c0.155-0.038,0.304-0.074,0.447-0.109         c0.293-0.076,0.562-0.147,0.81-0.213c0.507-0.144,0.926-0.263,1.271-0.36c1.397-0.407,1.643-0.375,1.56-0.147         c-0.081,0.221-0.495,0.59-0.383,0.749c0.11,0.146,0.768,0.136,2.811-0.644c-1.404,0.748-2.729,1.342-3.945,1.806         c-0.609,0.23-1.192,0.432-1.747,0.597c-0.26,0.072-0.513,0.143-0.761,0.211c-0.151,0.044-0.327,0.083-0.486,0.117         c-0.162,0.053-0.322,0.043-0.479,0.009c-0.163-0.023-0.321-0.047-0.477-0.069c-0.53-0.083-1.035-0.161-1.517-0.236         c-0.963-0.156-1.832-0.311-2.627-0.464c-3.183-0.613-5.188-1.213-7.289-1.85l-0.396-0.12         c-0.126-0.039-0.299-0.085-0.318-0.109c-0.104-0.056-0.208-0.113-0.314-0.171c-0.221-0.073-0.365-0.314-0.521-0.515         l-0.119-0.155c-0.114-0.104-0.23-0.209-0.35-0.317c-0.252-0.224-0.513-0.457-0.786-0.7c-0.554-0.484-1.155-1.011-1.818-1.592         c-1.349-1.149-2.948-2.514-4.919-4.194c-0.976-0.836-2.044-1.751-3.218-2.757c-0.287-0.251-0.58-0.509-0.88-0.771         c-0.344-0.31-0.696-0.626-1.057-0.95c-0.29-0.243-0.548-0.542-0.872-0.753c-0.345-0.182-0.693-0.365-1.046-0.552         c-0.437-0.227-0.882-0.458-1.337-0.694c0.229,0.117,0.485,0.248,0.76,0.39c0.392,0.21,0.812,0.435,1.252,0.671         c0.574,0.226,0.965,0.767,1.455,1.178c0.271,0.259,0.549,0.523,0.829,0.791c1.082,1.028,2.206,2.098,3.1,2.948         c1.798,1.726,2.583,2.684-0.001,0.848c-1.068-0.935-2.206-1.962-3.312-3.021l-0.82-0.798l-0.587-0.572         c-0.247-0.214-0.446-0.495-0.733-0.653c-1.341-0.757-1.759-1.023-2.477-1.453c-2.653-1.6-5.041-3.098-6.507-4.137         c-2.242-1.173-3.888-2.017-5.066-2.604c-0.619-0.304-1.112-0.547-1.498-0.736c-0.414-0.193-0.71-0.317-0.912-0.392         c-0.806-0.289-0.146,0.164,0.883,0.857c1.925,1.344,4.967,3.31,1.057,1.524c-0.355-0.257-0.696-0.505-1.027-0.744         c-0.371-0.256-0.729-0.485-1.079-0.698c-0.7-0.424-1.368-0.779-2.023-1.094c-1.31-0.627-2.569-1.092-3.899-1.529         c-1.328-0.414-2.719-0.847-4.313-1.344c-0.792-0.249-1.63-0.521-2.521-0.829c-0.222-0.078-0.447-0.157-0.678-0.238         c-0.138-0.044-0.278-0.089-0.422-0.135c-0.276-0.091-0.567-0.191-0.865-0.318l0.59-0.697         c-0.275-0.174-0.366-0.502-0.473-0.757c-0.099-0.274-0.167-0.516-0.235-0.78c-0.058-0.219-0.113-0.431-0.168-0.637         c-0.057-0.233-0.111-0.461-0.165-0.681c-0.1-0.45-0.192-0.871-0.28-1.267c-0.33-1.589-0.535-2.809-0.654-3.528         c-0.014-0.079-0.027-0.156-0.04-0.229c-0.014-0.114-0.027-0.225-0.04-0.33c-0.031-0.216-0.06-0.414-0.086-0.597         c-0.06-0.361-0.121-0.655-0.184-0.906c-0.125-0.502-0.253-0.828-0.38-1.137c-0.515-1.222-0.962-2.191-1.295-12.591         l1.768,8.721c0,0-0.248-2.718-0.496-5.436c-0.124-1.346-0.247-2.692-0.34-3.701c-0.083-1.015-0.14-1.691-0.14-1.691         l1.116,2.177c-1.367-11.753-1.371-15.438-1.707-27.013c-0.475,2.726-1.671-1.412-2.243-11.643         c0.148-7.01,1.041,3.856,0.144-10.639c0.723,3.239,1.602,6.784,1.13,13.146c0.32,0.63,0.723,3.196,1.04,3.845         c0.198-7.551-0.869-18.895-1.156-24.146c0.074,2.023,0.156,4.442,0.097,5.689l-2.333-20.951         c0.152-3.33,0.557-0.72,0.954,1.865c-0.321-4.253-0.881-7.175-1.289-13.433c0.798,1.577,1.513,1.144,2.319,9.987         l-1.856-19.984c0.238-1.356,0.303-10.333,0.704-7.749c-0.021-1.392-0.082-2.859-0.172-4.392         c-0.051-0.766-0.103-1.548-0.155-2.346l-0.045-0.601l-0.066-0.706c-0.054-0.457-0.107-0.917-0.161-1.382         c-0.065-0.484-0.138-0.983-0.256-1.595c-0.071-0.341-0.122-0.63-0.284-1.194l-0.167-0.513l-0.161-0.406l-0.097-0.215         l-0.059-0.122l-0.11-0.212c-0.077-0.14-0.159-0.278-0.245-0.413l-0.134-0.2l-0.068-0.098l-0.176-0.227         c-0.25-0.308-0.536-0.599-0.845-0.854l-0.234-0.185c-0.107-0.078-0.096-0.076-0.303-0.212         c-0.374-0.241-0.802-0.455-1.256-0.612c-0.453-0.159-0.93-0.26-1.387-0.302c-0.458-0.043-0.884-0.03-1.355,0.038         c-0.464,0.068-0.938,0.198-1.378,0.38c-0.22,0.091-0.433,0.194-0.633,0.307c-0.168,0.089-0.461,0.284-0.491,0.309         c-0.32,0.228-0.627,0.496-0.902,0.789c-0.138,0.146-0.268,0.299-0.388,0.456l-0.122,0.165l-0.067,0.099         c-0.176,0.261-0.345,0.558-0.472,0.822l-0.186,0.435l-0.083,0.22l-0.044,0.134l-0.083,0.271         c-0.088,0.312-0.141,0.554-0.177,0.746c-0.08,0.411-0.117,0.705-0.155,1.008c-0.067,0.58-0.105,1.088-0.134,1.586         c-0.021,0.493-0.043,0.988-0.065,1.486c-0.005,0.454-0.011,0.909-0.017,1.367c-0.007,0.895-0.014,1.798-0.021,2.708         c-0.058,7.283-0.157,15.018-0.825,22.364c0.097,0.772,0.148,2.315,0.083,5.453c-0.898,13.828-2.425,26.034-2.321,42.495         l-1.772,9.229c-0.394,12.863,2.279-12.5,1.622,8.918c-0.398,15.169-1.39,5.585-2.028,10.877         c0.056,1.883,0.154,4.157,0.199,6.629c0.031,2.558,0.069,5.354,0.052,8.351c-0.015,2.999-0.086,6.175-0.238,9.515         l-0.028,0.637c-0.004,0.089-0.013,0.178-0.027,0.265c-0.029,0.193-0.095,0.507-0.175,0.809         c-0.163,0.619-0.394,1.291-0.664,1.93c-0.134,0.317-0.284,0.643-0.432,0.929c-0.09,0.155-0.183,0.299-0.283,0.437         c-0.202,0.274-0.426,0.521-0.694,0.696c0.261-0.362,0.424-0.731,0.573-1.077c0.122-0.302,0.241-0.598,0.359-0.89         c0.144-0.38,0.278-0.765,0.397-1.146c0.119-0.38,0.225-0.76,0.305-1.109c0.083-0.362,0.131-0.652,0.138-0.792         C243.257,336.129,243.29,335.123,243.324,334.074z M135.242,315.339c1.939,2.392,5.97,7.045,6.856,9.173         C139.243,322.252,138.057,319.769,135.242,315.339z M112.976,173.097c0.044,2.307-0.477,5.81-1.233,9.736         C111.98,179.944,112.363,176.688,112.976,173.097z M403.15,168.493c-0.028-0.127-0.049-0.218-0.078-0.32         C402.681,161.325,402.807,163.755,403.15,168.493z M404.29,182.677c0.275,1.407,0.386,1.294,0.442,0.679         c-0.326-0.959-0.683-4.133-1.009-7.756C403.604,176.632,403.642,178.478,404.29,182.677z M396.996,297.836l-1.8,2.119         C398.635,294.72,397.8,296.278,396.996,297.836z" style="fill:#202020;"/><path d="M111.243,200.454c-0.24,0.848-0.429,1.066-0.614,1.248         C110.646,202.925,110.813,202.972,111.243,200.454z" style="fill:#202020;"/><path d="M248.124,235.446l0.037-0.48c-0.039-0.269-0.084-0.414-0.132-0.497L248.124,235.446z" style="fill:#202020;"/><path d="M324.151,158.443c-0.083-2.601-0.326-3.954-0.429-4.833c-0.125-0.025-0.133,0.216-0.024,0.928         C323.802,155.249,324.025,156.461,324.151,158.443z" style="fill:#202020;"/><path d="M399.048,259.661c1.183-1.165,2.329-2.377,3.438-3.679c1.107-1.31,2.182-2.684,3.198-4.343         c-1.511,2.352-2.657,3.523-3.613,4.522c-0.962,0.969-1.75,1.65-2.665,2.446C399.701,258.596,401.285,257.486,399.048,259.661         z" style="fill:#202020;"/><path d="M367.341,269.497c-0.05,0.135-0.186,0.087-0.232,0.223l0.175,0.369         C367.652,269.913,367.797,269.502,367.341,269.497z" style="fill:#202020;"/><path d="M390.192,263.084c-0.265-0.046-0.762,0.146-1.476,0.495c-0.722,0.346-1.625,0.86-2.898,1.384         c-0.299,0.124-0.733,0.269-1.024,0.354c-0.286,0.092-0.581,0.186-0.885,0.282c-0.611,0.214-1.256,0.439-1.927,0.674         c-1.342,0.488-2.785,1.041-4.265,1.611c0.357-0.129,0.697-0.251,1.056-0.379c-0.706,0.804,0.503,0.543,2.66-0.201         c1.067-0.379,2.386-0.847,3.829-1.358c1.036-0.361,1.857-0.822,2.66-1.308C388.72,264.15,389.468,263.624,390.192,263.084z" style="fill:#202020;"/><path d="M376.343,268.41c-0.913,0.352-1.837,0.707-2.755,1.061c-0.46,0.174-0.919,0.348-1.375,0.52         l-0.642,0.239l-0.053,0.008c0.024,0.102,0.049,0.153,0.074,0.172c0.013,0.009,0.026,0.009,0.04,0.003         c0.153-0.064,0.337-0.141,0.545-0.228C373.212,269.744,374.722,269.06,376.343,268.41z" style="fill:#202020;"/><path d="M406.703,200.548c0.135,3.033,1.14,1.767,1.023,3.509         C409.021,207.296,404.444,184.146,406.703,200.548z" style="fill:#202020;"/><path d="M384.262,263.462c0,0,0.617,0.065,1.258,0.028c0.639-0.027,1.276-0.114,1.276-0.114         s0.741-0.604,1.408-1.248c0.674-0.641,1.299-1.312,1.299-1.312s-1.225,0.826-2.526,1.52c-0.649,0.349-1.32,0.657-1.838,0.851         C384.621,263.379,384.262,263.462,384.262,263.462z" style="fill:#202020;"/><path d="M404.975,221.543c0,0,0.057,2.563-0.031,5.136c-0.104,1.356-0.276,2.561-0.376,3.532         c-0.107,0.951-0.18,1.585-0.18,1.585c0.166-0.14,0.142,1.159,0.069,2.751c0.152-1.565,0.309-3.167,0.456-4.688         c0.075-0.76,0.149-1.499,0.219-2.203c0.034-0.329,0.08-0.747,0.073-1.093c0.003-0.337,0.006-0.664,0.009-0.977         C405.212,223.085,405.1,221.417,404.975,221.543z" style="fill:#202020;"/><path d="M404.457,234.548c-0.307,3.264-0.562,6.37-0.573,8.197         C404.03,240.979,404.337,237.177,404.457,234.548z" style="fill:#202020;"/><path d="M395.442,255.33c0,0,0.571-0.491,1.143-0.982c0.558-0.507,1.115-1.015,1.115-1.015         c1.644-1.74,3.233-3.573,4.36-5.7c-0.811,1.5-1.888,2.832-3.012,4.102C397.915,253,396.701,254.191,395.442,255.33z" style="fill:#202020;"/><path d="M362.208,175.94l-8.046,7.71c-0.628,0.997,1.743-0.911,4.721-3.802         C360.703,177.889,363.674,175.009,362.208,175.94z" style="fill:#202020;"/><path d="M388.433,155.393c-0.482,0.289-0.816,0.593-1.13,0.791c-0.314,0.22-0.664,0.468-0.923,0.629         c-0.556,0.337-0.974,0.591-1.711,1.039l0.512,1.063c0,0,0.896-0.967,1.791-1.934c0.503-0.534,0.744-0.828,1.017-1.134         C388.237,155.554,388.417,155.368,388.433,155.393z" style="fill:#202020;"/><path d="M364.96,177.166c-0.608,0.981-11.329,11.576-0.953,1.995         C364.631,178.169,372.691,170.446,364.96,177.166z" style="fill:#202020;"/><polygon points="321.775,142.141 322.89,144.746 324.439,143.651        " style="fill:#202020;"/><path d="M234.24,88.534c8.854-9.806,1.167-3.156,9.283-11.915c1.67-2.66-6.633,7.16-4.866,4.479         C233.861,87.498,230.964,90.526,234.24,88.534z" style="fill:#202020;"/><path d="M238.656,81.098c0.77-1.025,1.575-2.119,2.414-3.297         C239.667,79.642,239.033,80.532,238.656,81.098z" style="fill:#202020;"/><path d="M351.752,285.942c-0.004,0.002-0.079,0.034-0.09,0.036c-0.034,0.007,0.051-0.009,0.033-0.004         c-0.002,0-0.018,0-0.043,0.006c0.008-0.002,0.017-0.005,0.017-0.005C351.678,285.976,351.732,285.95,351.752,285.942z" style="fill:#202020;"/><path d="M352.146,285.999l0.187,0.036c-0.027-0.018,0.564,0.158,0.568,0.177         C352.667,286.11,352.248,286.011,352.146,285.999z" style="fill:#202020;"/><path d="M123.447,294.776l-0.609-0.361c0.516,1.248,1.654,2.877,3.932,6.143L123.447,294.776z" style="fill:#202020;"/><path d="M195.836,365.98c0,0-0.027,0.002-0.068,0.006c-0.154,0.02-0.359,0.047-0.565,0.073         c-0.491,0.065-0.982,0.13-0.982,0.13s0.239,0.033,0.597,0.082c0.179,0.025,0.388,0.054,0.611,0.085         c0.112,0.016,0.228,0.031,0.345,0.047c0.068,0.023,0.083,0.056,0.13,0.082c0.159,0.112,0.348,0.22,0.504,0.299         c0.14,0.039,0.241,0.046,0.241,0.046c-0.007-0.017-0.234-0.109-0.454-0.374C195.98,366.223,195.836,365.98,195.836,365.98z" style="fill:#202020;"/><path d="M242.624,304.35c-0.254,3.937-0.262,8.58-0.519,12.534         C242.37,308.286,244.01,303.365,242.624,304.35z" style="fill:#202020;"/></g></g></g></g><g><g><g><g><path d="M249.125,363.692c-0.078,0.152,0.688,0.099,0.823,0.12         C249.8,363.594,248.926,363.688,249.125,363.692z" style="fill:#202020;"/><path d="M248.19,360.512l0.253,0.192c-0.019,0.007-0.454-0.786-0.436-0.793c0,0,0.04,0.15,0.079,0.302         C248.131,360.363,248.19,360.512,248.19,360.512z" style="fill:#202020;"/><path d="M250.124,358.151c-0.527-0.421-0.721-0.15-0.858,0.175c-0.111,0.362-0.162,0.767-0.502,0.853         l-0.291-0.104c0,0,0.17,0.208,0.341,0.417c0.175,0.201,0.351,0.402,0.351,0.402         C249.338,359.294,249.52,358.19,250.124,358.151z" style="fill:#202020;"/><path d="M252.742,359.8c-0.279-0.427,0.008-0.49-0.287-0.036c0.046,0.034,0.067,0.059,0.098,0.087         C252.586,359.826,252.64,359.808,252.742,359.8z" style="fill:#202020;"/><path d="M252.553,359.851C252.405,359.987,252.868,360.16,252.553,359.851L252.553,359.851z" style="fill:#202020;"/><path d="M253.313,359.224c0,0-0.035,0.124-0.059,0.26c-0.022,0.129-0.045,0.259-0.045,0.259         c0.156,0.264,0.358,0.247,0.355,0.483C253.705,359.939,253.612,359.658,253.313,359.224z" style="fill:#202020;"/><path d="M253.342,358.24l-0.116,0.227C253.29,358.58,253.336,358.614,253.342,358.24z" style="fill:#202020;"/><path d="M253.022,358.952c-0.011-0.01,0.194-0.493,0.204-0.485c-0.098-0.192-0.231-0.592-0.115,0.176         C253.028,358.265,253.061,358.639,253.022,358.952z" style="fill:#202020;"/><path d="M252.777,358.832c-0.263-0.218-0.579-0.257-0.426-0.814         C251.788,358.48,252.33,359.217,252.777,358.832z" style="fill:#202020;"/><path d="M249.427,356.996c0,0-0.546-0.069-0.542-0.057l0.042,0.551         C248.9,357.203,249.691,357.288,249.427,356.996z" style="fill:#202020;"/><path d="M255.391,359.689c0.037-0.276-0.196-0.737-0.24-1.091l-0.43,0.317         C254.942,359.105,255.362,359.279,255.391,359.689z" style="fill:#202020;"/><path d="M255.151,358.599l0.643-0.474C255.223,358.068,255.114,358.294,255.151,358.599z" style="fill:#202020;"/><path d="M253.073,356.819c-0.03,0.007-0.434,1.139-0.398,1.153c-0.043-0.018,0.502-1.191,0.537-1.206         L253.073,356.819z" style="fill:#202020;"/><path d="M256.622,359.812c0,0-0.066,0.152-0.133,0.304c-0.061,0.154-0.122,0.308-0.122,0.308         c-0.016-0.015,0.425-0.91,0.44-0.895L256.622,359.812z" style="fill:#202020;"/><path d="M257.289,359.902c-0.282,0.465-0.206,0.873-0.421,1.146c0.156-0.051,0.444-0.387,0.771-0.703         C257.392,360.505,257.329,360.363,257.289,359.902z" style="fill:#202020;"/><path d="M258.144,359.961c-0.138,0.066-0.321,0.217-0.504,0.385         C257.762,360.28,257.912,360.171,258.144,359.961z" style="fill:#202020;"/><path d="M256.401,358.299c0.008,0.17,0.011,0.617,0.148,0.825c0,0,0-0.197-0.001-0.394         c-0.005-0.198-0.011-0.396-0.011-0.396C256.496,358.323,256.449,358.312,256.401,358.299z" style="fill:#202020;"/><path d="M256.536,358.309l0.001,0.026c0.145,0.042,0.246,0.072,0.29,0.085         C256.79,358.408,256.704,358.38,256.536,358.309z" style="fill:#202020;"/><path d="M256.367,358.288l0.034,0.011C256.396,358.22,256.391,358.193,256.367,358.288z" style="fill:#202020;"/><path d="M254.31,357.353c0.115-0.221,0.288-0.463,0.426-0.719c0.165-0.25,0.121-0.545-0.192-0.859         C254.355,356.318,254.664,356.68,254.31,357.353z" style="fill:#202020;"/><path d="M256.263,357.313l-0.445-0.204c0.008,0.206,0.085,0.512-0.038,0.719         c0.009-0.001,0.112-0.126,0.234-0.256C256.138,357.443,256.263,357.313,256.263,357.313z" style="fill:#202020;"/><path d="M256.507,357.078c-0.001-0.007-0.244,0.235-0.244,0.235l0.159,0.07L256.507,357.078z" style="fill:#202020;"/><path d="M257.985,359.049c0.282-0.233,0.476-0.195,0.672-0.121c-0.103-0.265-0.298-0.416-0.498-0.524         C258.029,358.61,257.779,358.975,257.985,359.049z" style="fill:#202020;"/><path d="M257.34,358.566l0.049-0.034C257.386,358.464,257.374,358.439,257.34,358.566z" style="fill:#202020;"/><polygon points="260.204,360.268 260.295,360.151 260.187,360.229        " style="fill:#202020;"/><path d="M258.183,358.253c-0.104-0.211-0.286-0.061-0.455,0.129c0.143-0.023,0.3-0.046,0.432,0.021         C258.217,358.309,258.249,358.244,258.183,358.253z" style="fill:#202020;"/><path d="M258.742,359.933c0.038-0.174,0.047-0.34,0.043-0.506         C258.712,359.683,258.599,360.079,258.742,359.933z" style="fill:#202020;"/><path d="M257.375,358.752c-0.011,0.01-0.021,0.02-0.032,0.024         C257.34,358.955,257.358,358.875,257.375,358.752z" style="fill:#202020;"/><path d="M257.375,358.752c0.107-0.076,0.23-0.234,0.353-0.37c-0.118,0.023-0.229,0.061-0.339,0.15         C257.392,358.588,257.386,358.673,257.375,358.752z" style="fill:#202020;"/><path d="M264.765,358.074c-0.646,0.309-1.576,0.123-1.419-0.865c-0.851-0.133-2.223,1.883-3.051,2.942         c0.255-0.186,0.46-0.386,1.084-0.268c0.111-0.177,0.138-0.528,0.215-0.863c0.063-0.317,0.18-0.628,0.588-0.665         c0.767,0.36,0.183,0.655,0.073,1.137c0.292-0.375,0.683-0.374,1.147-0.334c0.464,0.031,1.013,0.104,1.544-0.293         c0,0-0.206-0.115-0.412-0.23c-0.201-0.107-0.402-0.215-0.402-0.215C264.294,358.292,264.727,358.371,264.765,358.074z" style="fill:#202020;"/><path d="M259.826,359.549l-0.183-0.044c0.051,0.217-0.034,0.512-0.318,1.058         c0.412-0.068,0.671-0.197,0.861-0.333c0,0-0.456-0.654-0.476-0.64L259.826,359.549z" style="fill:#202020;"/><path d="M259.073,359.05c0.533-0.573,1.141-0.543,1.419-1.392c-0.538-0.342-0.732,0.271-1.199,0.383         c0.856,0.297-0.432,0.237-0.173,0.932c-0.198,0.017-0.342-0.002-0.463-0.045c0.064,0.157,0.117,0.311,0.128,0.499         c0.006-0.02,0.01-0.033,0.015-0.05l-0.004-0.001l0.008-0.01c0.03-0.1,0.056-0.156,0.052-0.087         c0.008-0.007,0.017-0.004,0.021-0.004c0.065-0.087,0.131-0.156,0.195-0.222c0.081,0.268-0.093,0.187-0.195,0.222         l-0.072,0.091l-0.004,0.011c0.263,0.037,0.57,0.045,0.844,0.128C259.605,359.303,259.414,359.195,259.073,359.05z" style="fill:#202020;"/><path d="M255.213,354.079c0.041,0.069,0.039,0.125,0.042,0.182         C255.341,354.165,255.373,354.1,255.213,354.079z" style="fill:#202020;"/><path d="M255.756,354.553c-0.096,0.109-0.176,0.424-0.488,0.342c-0.271-0.235,0.001-0.376-0.013-0.634         c-0.188,0.208-0.658,0.563-0.068,0.944l0.093-0.106c0.6,0.258,1.041,1.284,0.959,1.382         C256.163,355.771,256.085,355.26,255.756,354.553z" style="fill:#202020;"/><path d="M258.104,356.44c0,0,0.232-0.016,0.465-0.031c0.24-0.022,0.481-0.016,0.481-0.016         s-0.029-0.212-0.079-0.404c-0.051-0.199-0.103-0.398-0.103-0.398l-0.121,0.39         C258.306,355.648,258.255,356.163,258.104,356.44z" style="fill:#202020;"/><path d="M259.939,360.567l-0.688,0.458c0,0,0.267-0.125,0.549-0.236         c0.279-0.113,0.574-0.211,0.574-0.211L259.939,360.567z" style="fill:#202020;"/><path d="M260.451,361.146l-0.638,0.341c0,0,0.483-0.064,0.477-0.056         C260.299,361.429,260.451,361.146,260.451,361.146z" style="fill:#202020;"/><path d="M247.507,455.024l-0.63-0.146C247.159,454.979,247.354,455.017,247.507,455.024z" style="fill:#202020;"/><path d="M251.598,456.68l0.18-0.321C251.542,456.502,251.425,456.621,251.598,456.68z" style="fill:#202020;"/><path d="M261.258,404.662c-0.673,0.621-1.716,1.314-0.906,1.239l0.79-0.19         C261,405.277,261.088,404.945,261.258,404.662z" style="fill:#202020;"/><path d="M265.973,436.346c0.077-0.059,0.159-0.121,0.24-0.182c-0.271-0.15-0.524-0.291-0.756-0.419         C265.613,435.927,265.789,436.131,265.973,436.346z" style="fill:#202020;"/><path d="M269.239,436.783l-0.509,0.817C268.908,437.417,269.078,437.154,269.239,436.783z" style="fill:#202020;"/><path d="M239.525,436.259l-0.804-0.497C238.725,436.539,239.13,436.197,239.525,436.259z" style="fill:#202020;"/><path d="M261.468,377.693c-0.309,0.535-0.438,0.961-0.477,1.336         C261.444,378.384,262.125,377.863,261.468,377.693z" style="fill:#202020;"/><path d="M252.365,448.115c-0.194,0.061-0.328,0.175-0.398,0.336         C252.179,448.405,252.318,448.31,252.365,448.115z" style="fill:#202020;"/><path d="M260.994,380.575c0.079-0.095,0.119-0.187,0.186-0.283c-0.133-0.392-0.239-0.785-0.188-1.263         C260.653,379.506,260.445,380.051,260.994,380.575z" style="fill:#202020;"/><path d="M240.179,381.23c0.035-0.034,0.052-0.074,0.094-0.104         C240.166,381.115,240.161,381.162,240.179,381.23z" style="fill:#202020;"/><path d="M248.147,367.736c0.049,0.133,0.05,0.35,0.06,0.554         C248.262,368.19,248.256,368.023,248.147,367.736z" style="fill:#202020;"/><path d="M260.833,365.98C260.78,365.581,260.745,365.917,260.833,365.98L260.833,365.98z" style="fill:#202020;"/><path d="M263.955,364.037c0.088,0.085,0.201,0.149,0.384,0.16         C264.148,364.164,264.028,364.108,263.955,364.037z" style="fill:#202020;"/><path d="M265.908,384.555c-0.001,0.012-0.002,0.021-0.003,0.034         C266.061,384.47,266.03,384.49,265.908,384.555z" style="fill:#202020;"/><path d="M261.191,365.379c-0.097,0.15-0.178,0.323-0.234,0.511         C261.019,365.808,261.095,365.652,261.191,365.379z" style="fill:#202020;"/><path d="M260.818,365.46c0.03-0.138,0.054-0.246,0.076-0.349         C260.763,365.061,260.681,365.105,260.818,365.46z" style="fill:#202020;"/><path d="M260.874,366.537c-0.012-0.229,0.025-0.442,0.083-0.647c-0.054,0.079-0.099,0.111-0.124,0.091         C260.842,366.098,260.854,366.263,260.874,366.537z" style="fill:#202020;"/><path d="M242.292,407.908c0.025-0.026,0.041-0.057,0.074-0.086         C242.039,407.42,242.091,407.597,242.292,407.908z" style="fill:#202020;"/><path d="M269.458,415.061c-0.009-0.02-0.029-0.029-0.038-0.046c-0.009,0.019-0.02,0.042-0.028,0.06         L269.458,415.061z" style="fill:#202020;"/><path d="M270.046,416.495c-0.982-0.611-0.862-0.959-0.654-1.421l-2.277,0.474L270.046,416.495z" style="fill:#202020;"/><path d="M240.821,447.051c0,0-0.041,0.408-0.082,0.816c-0.038,0.416-0.05,0.842-0.05,0.842         c-1.813-1.287-1.725-2.984-2.294-1.139c1.218-0.225,1.743,1.215,2.528,2.538c0.794,1.314,1.828,2.471,2.827,1.732         c0,0,0.062,0.263,0.123,0.525c0.069,0.269,0.138,0.536,0.138,0.536c-0.173-0.223-0.31-0.157-0.479-0.382         c0.204,1.126,0.832,1.068,1.498,0.931c0.676-0.122,1.419-0.349,2.225,0.432c0.552,0.566,0.882,1.174,0.253,1.142         c0,0,0.47,0.114,0.951,0.165c0.477,0.062,0.938,0.104,0.938,0.104c0.465,0.225,0.193,0.591-0.284,0.347         c0,0,0.67,0.21,1.338,0.395c0.682,0.147,1.363,0.258,1.363,0.258l-0.035,0.065c0.479-0.304,1.407-0.754,1.814-0.987         c0.619,0.391-0.347,0.242-0.212,0.559c0,0,1.497-0.517,1.417-0.533c0.215,0.319,0.124,0.638-0.173,0.857         c-0.359,0.207-0.951,0.323-1.469,0.225c0.589,1.292,1.011,1.145,1.539,0.883c0.187-0.142,0.411-0.315,0.726-0.364         c0.247-0.041,0.859,0.017,1.693,0.324c0,0-0.376,0.1-0.752,0.199c-0.192,0.047-0.383,0.094-0.527,0.129         c-0.105,0.03-0.175,0.051-0.175,0.051c0.119,0.354,0.48,0.568,0.756,0.72c0.302,0.149,0.628,0.227,0.982,0.28         c0.707,0.056,1.514,0.072,2.565,0.229c-0.142-0.082-0.483-0.195-0.87-0.348c-0.391-0.169-0.827-0.386-1.173-0.622         c-0.699-0.479-1.021-1.029-0.239-1.45c0.482,0.125,1.156,0.107,1.879-0.618c0.244,0.854,1.073,0.39,2.079-0.105l0.4,1.098         c1.042-0.869,0.665-1.345,1.004-2.162c1.186-0.579,1.911-0.104,2.681,0.295c0.973-0.701,0.401-0.707-0.115-0.788         c-0.529-0.092-0.998-0.277-0.138-1.202c1.586-0.912,2.111-2.324,2.405-4.43c0.884-0.913,0.551,0.501,1.039,0.253         c0,0-0.093-0.347-0.186-0.693c-0.109-0.346-0.237-0.678-0.237-0.678c0.111-0.235,0.351-0.06,0.47,0.032         c-0.05-0.975-1.016-0.466-0.983-1.817c-0.563-0.325,0.023-0.813,0.576-1.604c0.27-0.391,0.498-0.854,0.593-1.329         c0.08-0.411-0.002-0.725-0.364-1.056c0.331-0.314,0.713,0.151,1.164,0.056c-0.955-1.749-0.694-1.5-1.979-2.936l0.764-1.224         c-0.874,0.899-1.908-0.249-2.758-1.255c-0.423,0.318-0.792,0.591-0.968,0.773l-0.625-1.605         c0.191-0.193,0.591-0.032,1.077,0.231c-0.096-0.11-0.19-0.214-0.279-0.294c0.431-0.574,1.102-0.277,1.753,0.135         c-0.229,0.195-0.476,0.389-0.718,0.578c0.707,0.396,1.489,0.768,2.171,0.685c-0.134-0.104-0.249-0.306-0.314-0.526         c0.192,0.104,0.363,0.17,0.479,0.122c0.123-0.055-0.134-0.222-0.432-0.484l1.298-0.365l-0.516-0.088l0.813-2.101         c-1.307-1.503-3.229-2.811-3.766-5.195c0.952,0.592,1.555,0.127,2.683,0.159c-1.194,0.651,0.507,1.848,0.265,3.084         c0.126-0.646,0.662-0.504,0.851-0.34l-1.086-2.204c0.922,0.05,0.691-0.469,1.072-1.044c-1.822,0.435-1.214-1.644-1.772-2.541         c0.612-0.056,1.236,0.159,1.089,1.254c1.372-1.207-2.141-1.56-0.975-2.745c0.015,0.267-0.079,0.411,0.231,0.517         c-0.544-0.624-0.113-2.15,0.421-1.791l0.013,0.267c0.216-1.774,0.013-5.4-1.534-5.666c0.199-0.018,1.865,0.233,2.178,0.34         l-5.209-3.165c1.33,0.279,4.497-0.792,5.248,0.68c0.188-0.423,0.41-0.945-0.059-1.836c-0.189,0.288-1.923,0.719-2.045,0.325         c1.481-1.081,0.793-0.751,2.054-2.083c-0.285,0.432-2.37-0.048-2.303-0.73c0.312,0.106,2.058-0.057,2.274,0.192l-2.046-1.699         c0.368,0.425,1.734,0.075,2.313-0.305c-0.4,0.176,0.038-1.469-0.165-1.922l-0.475,0.72c0.31-1.918-2.878-1.895-2.771-3.798         c0.424,0.23,2.603,0.569,2.86-0.398c-1.049-0.443-5.042-1.964-5.849-3.647l0.599-0.323l-0.683-1.292         c1.577,0.805,4.896,3.062,6.188,4.295c0.475-0.718,0.706-0.2,0.652-1.275c0.562-0.38,0.852,0.586,0.886,0.902l0.362-2.503         c-1.225,0.111-1.228-1.914-2.247-1.818l1.269,2.719c-1.221,0.109-3.473-1.572-3.257-3.346         c0.487-0.451,2.178,0.338,2.586,0.301c-0.421-0.23-0.805-1.684-0.506-1.847l0.654,0.753c0.46-0.987-1.622-1.611-0.454-2.798         c0.078-0.409,1.575-1.223,0.852-1.294c-1.396,0.668-5.715,0.799-6.764,0.354c0.094-0.144,1.334-2.15,2.024-2.617         c1.095-0.675,2.608,1.012,3.549,0.438c-0.334-0.024-0.746-0.396-0.879-0.552c0.285-0.431,1.035,0.178,0.885-0.757         c-1.241-0.156,0.104-1.9-1.049-0.441c-0.354-0.914,0.255-0.972,0.201-2.045c-0.802,0.342-2.729-0.964-3.082-1.88         c0.314,0.054,0.727-0.151,0.913-0.251c0.112-1.874,0.675-2.88,0.687-4.627c0.301-0.161,0.663-1.004,1.197-0.645         c-0.219-0.252-0.64-0.482-0.669-1.021c1.072-1.043,0.166,1.201,1.455,0.406c-0.721-0.067-0.995-1.394-1.445-2.161         c-1.113,0.236-0.213,1.773,0.236,2.542c-1.535,0.004-3.144-1.334-3.854-3.16c-0.382-1.452,0.992-0.63,0.773-0.882         c0.269-2.726-2.682-2.322-1.574-4.586c0.979-0.898,1.947-0.041,2.653-0.24c0.37,1.183-0.621,1.815-0.582,2.617l0.463-0.987         c0.325,0.377,0.572,1.166,0.288,1.596c0.88-0.753,0.17-4.605,0.981-6.709c-0.329-0.374-0.668-1.019-1.062-0.714l0.137,0.666         c-0.789,0.611-1.092-1.253-1.46-0.41c-0.277-0.446-0.634-0.92-0.865-1.438c-0.116-0.26-0.2-0.53-0.229-0.814         c-0.024-0.303-0.021-0.445,0.083-0.706c0,0,0.276-0.066,0.553-0.134c0.276-0.073,0.552-0.146,0.552-0.146         c-0.329,0.087-0.622,0.662-0.283,1.027c-0.239-0.294,0.101-0.615,0.344-1.082c0.181-0.431,0.276-0.931-0.517-0.988         c0,0-0.129,0.217-0.304,0.424c-0.166,0.196-0.332,0.394-0.332,0.394c-0.312-0.295-0.829-0.542-1.223-0.771         c-0.421-0.228-0.701-0.443-0.704-0.813c-0.882,0.719,0.221,0.114-0.846,0.979c0.676-0.447,0.837-0.088,0.9,0.284         c0.104,0.345,0.113,0.719,0.912,0.247c-0.7,0.382-0.817,0.569-0.953,0.792c-0.062,0.112-0.111,0.208-0.225,0.341         c-0.122,0.218-0.308,0.453-0.626,0.719c0.368-0.032,0.704-0.376,0.522,0.56c0.107,0.042,0.244,0.142,0.324,0.205         c-0.01,0.028-0.016,0.038-0.027,0.063l0.043-0.051c0.056,0.04,0.067,0.043,0.016-0.02c0.161-0.223,0.354-0.403,0.56-0.477         c0.846,0.464,0.818,1.951,1.257,2.454c-0.176,0.555-0.423-0.232-0.815,0.07l0.653,0.751         c-0.817,0.074-1.357,1.475-1.837,0.167l-0.036,1.177c-0.459,0.692-0.641,1.646-0.297,2.232         c-0.177,0.555,0.904,1.401,0.265,0.918l0.507,1.846l-0.204,0.017c-0.104,1.82,1.354,3.747-0.122,5.828         c0.206,0.613,0.459,1.246,0.227,2.271l-0.707,0.2c0.247,0.787-0.708,2.362,0.029,2.701c-1.903,0.849-0.416,3.818-0.753,5.202         l0.923,0.052c-0.052,0.953,0.21,1.866,0.581,3.049l0.815-0.072c0.67,1.019-0.58,2.62-0.497,4.232         c-0.312-0.109-0.229-0.519-0.041-0.808c-1.844,1.926,1.34,4.064-0.003,5.812c0.298,0.435,0.196,0.75-0.009,1.056         c-0.002-0.041-0.018-0.077-0.042-0.108c-0.011,0.045-0.013,0.111-0.011,0.179c-0.141,0.192-0.304,0.391-0.435,0.604         c0.198-0.182,0.361-0.356,0.438-0.508c0.017,0.336,0.118,0.845,0.322,1.344l-0.876,0.213c0.012,0.04,0.01,0.073,0.024,0.115         c-0.323,0.49,0.415,0.394,1.075,0.133c0.144,0.251,0.316,0.481,0.528,0.66c-1.415,0.397,0.477,1.31-1.032,1.853         c0.735,0.336,0.554,2.509,2.101,2.775c-0.2,0.017-0.297,0.164-0.31-0.105c-0.177,0.557-0.353,1.112,0.083,1.611l-1.113,0.236         l1.498,1.215c-0.68,0.738-1.074,1.044-1.932,0.312c1.318,1.77,0.497,1.436,1.804,2.94l-0.72-0.073         c0.027,0.538,0.992,1.398,0.396,1.723c-1.369,1.204-0.188,5.955-1.462,9.045c2.122-0.6-0.95,1.436,0.693,1.559         c-0.501,0.18-0.784,0.61-1.221,0.109c0.493,1.577-0.796,2.369,0.591,3.458c-0.504,0.18-0.735-0.338-1.033-0.178         c0.108,0.127,0.437,0.501,0.137,0.665c-0.299,0.161-0.421-0.23-0.641-0.48c0.085,1.611,1.632,1.773,3.083,1.891         c-0.688,0.816-0.591,1.224,0.361,1.813c-0.475,0.284-0.972,0.758-1.142-0.243c-0.069,0.563-0.696,3.439,0.467,3.497         c-0.295,0.176-0.086,0.786,0.048,0.935c-0.047,0.632-0.073,0.976-0.099,1.316c-0.028,0.335-0.038,0.529-0.02,1.02         c0.009,0.003,0.211-0.244,0.211-0.244c0.704,0.25,0.726,0.492,0.615,0.747c-0.102,0.264-0.415,0.515-0.435,0.932         l-0.133-0.063c-0.758,0.72-0.731,0.886-0.729,1.112c0.021,0.204,0.003,0.476-0.948,0.871l0.779,0.417         c0.719,0.583,0.222,0.845-0.46,0.972c-0.691,0.145-1.48,0.124-1.676,0.702c0,0,0.153,0.042,0.306,0.083         c0.157,0.037,0.314,0.074,0.314,0.074c-0.047,0.423-0.781,0.228-1.499-0.238c-0.713-0.423-1.365-1.076-1.587-1.097         c-0.144-0.11,0.014-0.303,0.062-0.456c-0.665-0.279-0.565-0.051-0.41,0.39c0.161,0.43,0.438,0.991,0.04,1.288         c-0.323-0.554-0.309-1.538-0.795-1.536c-0.167-0.205-0.361,0.346-0.783,0.794c-0.104,0.107-0.217,0.213-0.337,0.303         c-0.13,0.089-0.389,0.145-0.574,0.177c-0.201,0.03-0.397,0.028-0.583-0.018c-0.115-0.055-0.218-0.152-0.304-0.305         c0.131,0.484,0.349,0.971-0.129,1.303c-0.181,0.043-0.385-0.067-0.576-0.247c-0.195-0.164-0.381-0.375-0.548-0.578         c-0.353-0.367-0.627-0.615-1.213-0.052c-0.024-0.156,0.002-0.282,0.05-0.391c-0.622,0.179-1.749-0.283-2.546,0.028         c0.787-1.296,0.057-1.53-0.723-1.985c-0.775-0.427-1.451-1.069-0.14-1.533c0,0-0.189-0.341-0.302-0.714         c-0.158-0.36-0.202-0.755-0.22-0.752l0.288,0.003c0.086-0.837-0.541-1.594-1.217-2.085c0.189-0.347,0.449-0.094,0.595-0.064         c0.561-2.196,0.442-2.415-0.942-4.257l0.902-0.191c-0.524-0.499,1.415-3.176,0.362-5.33c0.102,0.021,0.277,0.066,0.405,0.237         c-1.059-2.424,2.502-5.803-0.783-6.691l-0.81-1.599c-0.256,2.069-1.426-0.309-1.972,0.543         c-0.193-0.814,0.99-2.104,1.16-1.104l-0.165,0.157c1.712,0.367,0.607-2.572,1.773-2.517         c-0.084-4.071,0.864-8.04,0.937-11.854l-1.331,0.439l0.077-1.33c0.31-0.35,1.041-0.469,0.986,0.48         c0.755-0.5-0.631-1.592-0.921-1.619c0.54-1.858,1.552,0.726,1.584,0.156l-0.099-0.774l-0.156,0.175         c-0.544-0.628-1.121-0.684-1.054-1.824c0.266-0.722,0.82-0.37,0.872-0.654c0.094,0.002,0.139-0.095,0.038-0.436l0.114-1.677         l-1.051,0.671c-0.518-0.743,0.055-1.576-1.136-0.803c0.459-0.27,0.73-0.849,0.887-1.436c0.157-0.493,0.2-1.075,0.203-1.647         c0.006-1.144-0.146-2.246,0.14-2.511c-0.767-0.789-0.753-1.567-0.661-2.533c-0.219,0.24-1.4,0.384-1.256-0.448         c2.438,0.305,1.059-1.524,2.813-2.197c-1.164,0.602-0.288-2.365-1.94-1.423c0.197-0.694,0.913-0.042,1.487-0.568         c-0.945-1.653,0.614-3.643,0.295-5.687c-0.32-0.031-0.81,0.311-1.286-0.128l1.6-1.078c-0.156-0.403-1.847-0.372-0.736-1.109         c-0.269,0.104-0.675,0.26-0.777-0.011c1.56-4.003-1.278-8.179,1.653-12.243c-0.621,0.55-0.682,0.183-0.706-0.237         c-0.148,0.273-0.79-0.006-1.224,0.048l1.205-1.702c-1.204-0.311-0.082-1.824-1.233-2.002l0.208,0.539         c-1.359-0.717-3.02,1.003-4.763,0.897c1.545,0.803-2.288,2.116-0.077,3.433c-0.355,0.291-0.562-0.248-0.966-0.092         c0.748,0.333,0.903,0.736,0.568,1.483l-0.185-0.085c0.182,2.099-0.555,2.998-1.046,5.355l0.863-0.175         c-0.115,0.507-0.386,0.613-0.602,0.851c1.308,0.581,0.074-1.423,1.516-0.894c-1.754,0.672-0.027,3.572-2.02,4.026         c-0.01,0.779,0.998-0.229,0.986,0.551l-0.54,0.207l0.695,0.196c-0.115,0.511-0.79,0.769-1.246,0.788         c0.054-0.124-0.128-0.353-0.167-0.485c-0.636,0.662,0.216,1.868,0.01,2.096l0.332-0.749c0.505,2.127-0.204,4.724,0.893,6.778         l0.408-0.156c0.752,1.569-0.447,1.257-0.1,2.979l-0.096-0.063c0.405,0.345,0.609,0.805,0.563,1.276         c-0.476-0.436-0.926,0.818-1.453,0.248c0.808,1.701,0.635,0.841,2.147,1.965l-0.674,0.259         c0.609,0.384,0.932,0.415,1.106,1.275c-0.579-0.705-1.028,0.55-1.793-0.241c-0.738,0.903-0.366,1.573-0.079,2.121         c0.144,0.274,0.266,0.518,0.218,0.744c-0.049,0.238-0.268,0.402-0.808,0.706c0.467,0.273,0.766,0.281,0.957,0.148         c0.191-0.125,0.275-0.433,0.313-0.623c0.076-0.436-0.032-0.918,0.168-0.686c0.305-0.194,0.654-0.023,0.903,0.268         c0.25,0.29,0.399,0.671,0.305,1.094c-0.042,0.761-2.389,1.293-2.354,3.206c0.008-0.19-0.132-0.203-0.125-0.393         c-0.477,0.716,0.646,1.402-0.129,2.28c1.13,0.492-0.064,1.141,1.376,1.282l-0.333-1.755c0.376,0.995,2.063,1.928,1.245,3.566         c-0.291-0.128-0.673-0.615-0.886-0.95c-0.425,0.479,0.282,0.923-0.155,1.42c-1.442-0.143-0.313-2.133-1.413-3.199         c-0.609,0.515,1.044,2.017-0.517,1.48c1.986,0.771-0.25,1.885,1.266,3.181l-0.864-0.086c0.136,0.205,0.543,0.63,0.522,1.008         l-1.12-0.684c0.955,1.049-0.835,2.022-0.315,3.028c-0.027-2.106,1.04-0.473,1.671-1.363c1.156,2.598-2.259,1.493-1.845,4.402         c-0.122-0.395,0.519-1.479,0.919-0.863c-0.178,0.554-0.51,1.285-0.962,1.625c0.179,1.927,0.888-0.296,1.418,0.524         c-1.052,0.656,0.428,0.946,0.766,1.791l-0.878,0.006c-0.563,2.196,1.83,0.582,1.149,2.56l-1.218-0.836l0.314,1.03         l-0.999-0.212c0.74,1.121,0.549,1.47,0.269,2.568c0.619-0.255,1.593,0.144,1.621,1.116c-0.522,0.663-0.834-0.371-0.709,1.008         c-0.549-0.312-1.239-0.652-0.43-1.253c-0.287-0.061-0.551-0.307-0.834-0.37c-0.599,0.715-0.136,1.796-0.129,2.295         c0.033-0.192,0.08-0.422,0.206-0.54l1.216,1.999c-0.33,0.314-0.594,0.064-0.854-0.183c0.095,0.405,0.498,0.685,0.573,1.28         c-0.713-0.154-1.45-0.117-1.786-0.96l0.792,1.904c-0.31,0.127-0.852,0.978-1.115,0.73c-0.419,1.056,1.385,2.589,0.832,3.988         c0.138,0.073,0.271,0.219,0.373,0.517c-0.161,1.315-1.037,2.48-0.059,4.04l-1.279,0.885c0.291,1.221,1.612-1.198,2.094,0.835         c0.492,1.92-1.057,0.792-1.373,1.558c0.401,0.516,0.95,1.171,1.433,1.88c0.458,0.726,0.794,1.509,0.712,2.587         C241.085,448.133,241.119,447.573,240.821,447.051z M257.638,456.5c-0.364,0.267-1.186,0.854-1.509,0.355         C256.564,455.813,256.9,456.325,257.638,456.5z M267.66,434.128c0.29,0.217,0.146,0.553-0.186,0.932         C267.402,434.784,267.435,434.474,267.66,434.128z M261.547,370.359c0.014,0.012,0.024,0.021,0.043,0.031         C261.248,371.041,261.382,370.811,261.547,370.359z M261.929,369.008c-0.123-0.136-0.245-0.127-0.368-0.069         c0.223,0.095,0.237,0.397,0.176,0.743C261.966,369.586,262.125,369.411,261.929,369.008z M248.202,403.641l-0.229,0.264         C247.72,403.311,247.948,403.477,248.202,403.641z" style="fill:#202020;"/><path d="M268.861,436.724c-0.148,0.083-0.313,0.105-0.478,0.125         C268.531,436.964,268.702,436.966,268.861,436.724z" style="fill:#202020;"/><path d="M239.673,436.351c0.008-0.015,0.005-0.03,0.011-0.046c-0.053-0.024-0.106-0.038-0.159-0.046         L239.673,436.351z" style="fill:#202020;"/><path d="M269.372,389.944c-0.126,0.278-0.287,0.434-0.453,0.536         C269.134,390.496,269.315,390.369,269.372,389.944z" style="fill:#202020;"/><path d="M260.345,362.909l0.286,0.368c-0.081-0.191,0.102-0.291,0.225-0.426         C260.655,362.902,260.372,363.03,260.345,362.909z" style="fill:#202020;"/><path d="M262.566,356.384c-0.144,0.015-0.159-0.13-0.301-0.111l-0.247,0.326         C262.319,356.838,262.762,356.795,262.566,356.384z" style="fill:#202020;"/><path d="M263.056,361.751c0.717-0.255,0.313-0.613,0.026-1.005c0.012,0.025,0.026,0.049,0.028,0.08         C262.104,361.109,262.594,361.379,263.056,361.751z" style="fill:#202020;"/><path d="M263.009,360.656c-0.094-0.112-0.186-0.256-0.203-0.376         C262.413,360.418,262.791,360.452,263.009,360.656z" style="fill:#202020;"/><path d="M261.438,367.293c0.19-0.287-0.944-0.18-0.644-0.343         C259.854,366.629,261.933,368.867,261.438,367.293z" style="fill:#202020;"/><path d="M265.249,360.614c0,0-0.198,0.122-0.396,0.244c-0.199,0.117-0.398,0.234-0.398,0.234         s0.196,0.021,0.393,0.044c0.197,0.028,0.395,0.057,0.395,0.057s0.008-0.146,0.016-0.291         C265.254,360.758,265.249,360.614,265.249,360.614z" style="fill:#202020;"/><path d="M265.117,365.341l0.253-0.969c-0.153,0.015-0.243-0.108-0.312-0.26         C265.028,364.71,264.848,365.364,265.117,365.341z" style="fill:#202020;"/><path d="M265.059,364.112c0.025-0.32-0.02-0.584-0.174-0.736         C264.901,363.528,264.954,363.851,265.059,364.112z" style="fill:#202020;"/><path d="M265.864,361.837l-0.143,0.322l0.032,0.689c0,0,0.032-0.247,0.059-0.5         C265.839,362.093,265.864,361.837,265.864,361.837z" style="fill:#202020;"/><path d="M264.941,375.758l0.262,1.058c0.312,0.108,0.504-0.181,0.379-0.574         C265.364,375.988,265.243,375.596,264.941,375.758z" style="fill:#202020;"/><path d="M267.438,372.56c-0.189,0.286-0.393,0.306-0.692,0.467l1.13,0.032L267.438,372.56z" style="fill:#202020;"/><path d="M267.702,375.644c0.314,0.105,0.9,1.535,0.829,0.194         C268.221,375.731,267.96,374.672,267.702,375.644z" style="fill:#202020;"/><polygon points="266.272,391.579 266.258,391.311 264.404,391.349        " style="fill:#202020;"/><path d="M270.707,405.625c0.444-1.254-1.144-0.298-0.589-1.431c-0.438-0.294-0.452,0.926-0.831,0.624         C269.749,405.575,269.488,405.972,270.707,405.625z" style="fill:#202020;"/><path d="M269.287,404.818c-0.073-0.121-0.162-0.249-0.282-0.386         C269.121,404.651,269.21,404.755,269.287,404.818z" style="fill:#202020;"/><polygon points="249.142,365.497 249.529,364.886 248.906,365.28        " style="fill:#202020;"/><path d="M247.768,364.323l1.181-0.144l-1.069-0.367C247.932,363.951,248.034,364.219,247.768,364.323z         " style="fill:#202020;"/><path d="M261.511,457.965l-0.007-0.301c-0.299-0.221-0.58-0.127-1.162,0.007         c0,0,0.285,0.088,0.576,0.157C261.215,457.896,261.511,457.965,261.511,457.965z" style="fill:#202020;"/><path d="M245.613,455.166l0.22,0.192c0,0,0.047-0.297,0.095-0.594         c0.056-0.292,0.111-0.584,0.111-0.584L245.613,455.166z" style="fill:#202020;"/><path d="M237.859,443.089c-0.019,0.637,0.254,1.353,0.321,1.977         C237.781,443.702,239.208,442.882,237.859,443.089z" style="fill:#202020;"/></g></g></g></g></g></g></g><g id="Layer_1"/></svg>